<svg xmlns="http://www.w3.org/2000/svg" xmlns:xlink="http://www.w3.org/1999/xlink" width="970" zoomAndPan="magnify" viewBox="0 0 727.5 187.499995" height="250" preserveAspectRatio="xMidYMid meet" version="1.0"><defs><g/><clipPath id="166ec5a017"><path d="M 0.71875 0 L 726.285156 0 L 726.285156 187 L 0.71875 187 Z M 0.71875 0 " clip-rule="nonzero"/></clipPath><clipPath id="ce89a828db"><path d="M 293.453125 113.050781 L 434.046875 113.050781 L 434.046875 157.230469 L 293.453125 157.230469 Z M 293.453125 113.050781 " clip-rule="nonzero"/></clipPath><clipPath id="11fdd5d527"><path d="M 304.679688 113.050781 L 422.820312 113.050781 C 429.019531 113.050781 434.046875 118.078125 434.046875 124.28125 L 434.046875 146.003906 C 434.046875 152.203125 429.019531 157.230469 422.820312 157.230469 L 304.679688 157.230469 C 298.480469 157.230469 293.453125 152.203125 293.453125 146.003906 L 293.453125 124.28125 C 293.453125 118.078125 298.480469 113.050781 304.679688 113.050781 Z M 304.679688 113.050781 " clip-rule="nonzero"/></clipPath><clipPath id="c1667c6a3f"><path d="M 594.378906 25.914062 L 684.949219 25.914062 L 684.949219 100.765625 L 594.378906 100.765625 Z M 594.378906 25.914062 " clip-rule="nonzero"/></clipPath><clipPath id="8d2fe92699"><path d="M 76.4375 76 L 139 76 L 139 141 L 76.4375 141 Z M 76.4375 76 " clip-rule="nonzero"/></clipPath><clipPath id="f9f1e2182a"><path d="M 109 145 L 118 145 L 118 150.433594 L 109 150.433594 Z M 109 145 " clip-rule="nonzero"/></clipPath><clipPath id="b6478bf9f6"><path d="M 103 107 L 131 107 L 131 150.433594 L 103 150.433594 Z M 103 107 " clip-rule="nonzero"/></clipPath><clipPath id="0c89e12771"><path d="M 96 62.109375 L 123 62.109375 L 123 67 L 96 67 Z M 96 62.109375 " clip-rule="nonzero"/></clipPath><clipPath id="f4e95b41ea"><path d="M 555.617188 81.519531 L 611.757812 81.519531 L 611.757812 163.855469 L 555.617188 163.855469 Z M 555.617188 81.519531 " clip-rule="nonzero"/></clipPath></defs><g clip-path="url(#166ec5a017)"><path fill="#ffffff" d="M 0.71875 0 L 726.78125 0 L 726.78125 187.128906 L 0.71875 187.128906 Z M 0.71875 0 " fill-opacity="1" fill-rule="nonzero"/><path fill="#0d0d0d" d="M 0.71875 0 L 726.78125 0 L 726.78125 187.128906 L 0.71875 187.128906 Z M 0.71875 0 " fill-opacity="1" fill-rule="nonzero"/></g><g clip-path="url(#ce89a828db)"><g clip-path="url(#11fdd5d527)"><path fill="#f2f2f2" d="M 293.453125 113.050781 L 434.046875 113.050781 L 434.046875 157.230469 L 293.453125 157.230469 Z M 293.453125 113.050781 " fill-opacity="1" fill-rule="nonzero"/></g></g><path fill="#257acc" d="M 617.542969 42.066406 C 615.460938 41.054688 613.199219 40.882812 611.179688 41.585938 C 606.40625 43.253906 604.15625 49.300781 606.160156 55.066406 C 607.242188 58.191406 609.398438 60.730469 612.082031 62.027344 C 613.316406 62.628906 614.613281 62.929688 615.882812 62.929688 C 616.757812 62.929688 617.617188 62.789062 618.433594 62.5 C 623.203125 60.832031 625.457031 54.789062 623.453125 49.023438 C 622.375 45.902344 620.21875 43.367188 617.542969 42.066406 Z M 617.960938 61.140625 C 616.289062 61.730469 614.46875 61.585938 612.707031 60.734375 C 610.367188 59.597656 608.472656 57.363281 607.515625 54.597656 C 605.773438 49.578125 607.628906 44.351562 611.652344 42.945312 C 612.328125 42.710938 613.03125 42.59375 613.738281 42.59375 C 614.792969 42.59375 615.863281 42.851562 616.917969 43.363281 C 619.253906 44.496094 621.140625 46.734375 622.09375 49.496094 C 622.097656 49.496094 622.097656 49.5 622.097656 49.5 C 623.839844 54.511719 621.984375 59.734375 617.960938 61.140625 Z M 617.960938 61.140625 " fill-opacity="1" fill-rule="nonzero"/><path fill="#257acc" d="M 620.800781 49.953125 C 620 47.644531 618.429688 45.78125 616.496094 44.847656 C 615.078125 44.164062 613.550781 44.050781 612.199219 44.523438 C 608.894531 45.671875 607.375 49.988281 608.8125 54.140625 C 610.011719 57.589844 612.886719 59.855469 615.726562 59.855469 C 616.296875 59.855469 616.867188 59.761719 617.421875 59.570312 C 620.71875 58.414062 622.238281 54.097656 620.800781 49.953125 Z M 614.019531 49.792969 C 614.066406 49.773438 614.121094 49.765625 614.179688 49.765625 C 614.707031 49.765625 615.496094 50.503906 615.902344 51.667969 C 616.191406 52.5 616.207031 53.386719 615.945312 53.925781 C 615.851562 54.125 615.730469 54.25 615.585938 54.296875 C 615.449219 54.347656 615.273438 54.324219 615.078125 54.230469 C 614.539062 53.96875 614.003906 53.265625 613.714844 52.429688 C 613.273438 51.160156 613.519531 49.96875 614.019531 49.792969 Z M 614.019531 49.792969 " fill-opacity="1" fill-rule="nonzero"/><g clip-path="url(#c1667c6a3f)"><path fill="#257acc" d="M 684.207031 68.269531 L 668.265625 68.269531 C 667.976562 68.269531 667.714844 68.441406 667.601562 68.707031 L 665.023438 74.738281 L 653.980469 72.179688 L 653.980469 70.292969 C 658.292969 69.140625 661.480469 65.199219 661.480469 60.519531 C 661.480469 60.167969 661.457031 59.824219 661.421875 59.480469 L 672.203125 56.503906 C 672.425781 56.445312 672.605469 56.28125 672.6875 56.066406 C 673.40625 54.160156 673.738281 52.164062 673.671875 50.136719 C 673.621094 48.53125 673.3125 46.957031 672.769531 45.445312 C 673.457031 43.171875 674.28125 38.84375 672.699219 33.941406 C 671.5 30.21875 669.390625 27.632812 667.828125 26.117188 C 667.824219 26.113281 667.820312 26.109375 667.816406 26.105469 C 667.753906 26.050781 667.683594 26.003906 667.605469 25.972656 C 667.597656 25.96875 667.59375 25.964844 667.589844 25.960938 C 667.507812 25.929688 667.421875 25.914062 667.332031 25.914062 L 640.128906 25.914062 C 640.066406 25.914062 640.011719 25.921875 639.953125 25.9375 L 594.9375 37.226562 C 594.921875 37.234375 594.910156 37.242188 594.894531 37.25 C 594.878906 37.253906 594.863281 37.25 594.851562 37.253906 C 594.828125 37.265625 594.808594 37.285156 594.785156 37.296875 C 594.738281 37.320312 594.695312 37.347656 594.65625 37.382812 C 594.625 37.40625 594.597656 37.433594 594.574219 37.464844 C 594.539062 37.5 594.515625 37.542969 594.488281 37.585938 C 594.46875 37.621094 594.453125 37.652344 594.441406 37.691406 C 594.425781 37.738281 594.417969 37.78125 594.410156 37.832031 C 594.40625 37.875 594.402344 37.914062 594.402344 37.957031 C 594.402344 37.976562 594.398438 37.996094 594.398438 38.015625 C 594.402344 38.046875 594.421875 38.074219 594.429688 38.105469 C 594.433594 38.132812 594.433594 38.160156 594.441406 38.1875 L 601.007812 55.128906 C 601.011719 55.132812 601.011719 55.132812 601.015625 55.136719 C 601.015625 55.140625 601.015625 55.140625 601.015625 55.144531 L 605.699219 66.4375 C 605.8125 66.707031 606.074219 66.878906 606.363281 66.878906 L 633.785156 66.878906 L 633.785156 76.515625 C 633.785156 76.523438 633.785156 76.527344 633.785156 76.53125 C 633.789062 76.621094 633.804688 76.710938 633.839844 76.792969 C 633.855469 76.835938 633.886719 76.867188 633.914062 76.90625 C 633.9375 76.945312 633.957031 76.988281 633.992188 77.023438 C 634.050781 77.082031 634.117188 77.125 634.191406 77.160156 C 634.203125 77.164062 634.210938 77.175781 634.222656 77.179688 L 664.960938 90.273438 L 671.410156 100.433594 C 671.542969 100.640625 671.773438 100.765625 672.015625 100.765625 L 684.210938 100.765625 C 684.210938 100.765625 684.214844 100.765625 684.214844 100.765625 C 684.390625 100.765625 684.554688 100.699219 684.679688 100.589844 C 684.710938 100.566406 684.738281 100.535156 684.761719 100.503906 C 684.867188 100.382812 684.929688 100.21875 684.929688 100.046875 L 684.929688 68.988281 C 684.925781 68.59375 684.605469 68.269531 684.207031 68.269531 Z M 668.738281 69.710938 L 679.492188 69.710938 L 677.144531 77.542969 L 666.445312 75.066406 Z M 652.542969 70.644531 L 652.542969 72.753906 C 652.542969 73.089844 652.773438 73.378906 653.097656 73.453125 L 676.921875 78.96875 L 676.921875 88.632812 L 645.539062 76.03125 L 645.539062 70.644531 Z M 665.59375 88.976562 L 638.027344 77.238281 L 644.679688 77.238281 L 673.917969 88.976562 Z M 666.105469 47.820312 C 666.449219 48.859375 666.746094 50.292969 666.613281 51.988281 C 666.4375 54.234375 665.582031 55.945312 664.84375 57.042969 L 656.769531 59.269531 C 656.746094 59.277344 656.71875 59.28125 656.691406 59.292969 L 635.601562 65.109375 C 636.023438 63.609375 636.210938 62.058594 636.160156 60.496094 C 636.113281 59.03125 635.847656 57.601562 635.398438 56.226562 C 640.5 54.832031 645.605469 53.433594 650.707031 52.035156 C 655.839844 50.628906 660.96875 49.222656 666.105469 47.820312 Z M 656.273438 60.902344 C 656.078125 63.4375 653.964844 65.441406 651.386719 65.441406 C 649.78125 65.441406 648.292969 64.640625 647.382812 63.355469 Z M 644.820312 69.207031 L 642.722656 69.207031 L 642.722656 65.722656 C 643.582031 67.175781 644.769531 68.359375 646.175781 69.207031 Z M 641.285156 65.035156 L 641.285156 69.207031 L 635.21875 69.207031 L 635.21875 66.710938 Z M 635.21875 70.644531 L 644.101562 70.644531 L 644.101562 75.796875 L 635.21875 75.796875 Z M 660.042969 60.519531 C 660.042969 65.308594 656.160156 69.207031 651.386719 69.207031 C 648.046875 69.207031 645.085938 67.339844 643.628906 64.390625 L 645.9375 63.753906 C 647.070312 65.667969 649.140625 66.882812 651.386719 66.882812 C 654.886719 66.882812 657.730469 64.027344 657.730469 60.519531 C 657.730469 60.511719 657.730469 60.503906 657.730469 60.5 L 660.019531 59.867188 C 660.035156 60.082031 660.042969 60.300781 660.042969 60.519531 Z M 671.46875 55.214844 L 666.820312 56.5 C 667.398438 55.339844 667.90625 53.867188 668.046875 52.105469 C 668.191406 50.214844 667.871094 48.613281 667.492188 47.441406 C 668.75 47.09375 670.011719 46.746094 671.273438 46.402344 L 671.550781 46.328125 C 671.957031 47.578125 672.195312 48.871094 672.238281 50.183594 C 672.292969 51.902344 672.035156 53.59375 671.46875 55.214844 Z M 671.445312 44.863281 L 670.894531 45.015625 C 669.382812 45.425781 667.871094 45.839844 666.363281 46.257812 C 661.019531 47.71875 655.671875 49.183594 650.328125 50.648438 C 644.980469 52.113281 639.636719 53.578125 634.292969 55.039062 L 631.3125 55.855469 C 630.726562 52.832031 629.8125 49.875 628.59375 47.054688 C 627.265625 43.976562 625.566406 41.058594 623.542969 38.359375 L 667.105469 27.433594 C 668.515625 28.863281 670.292969 31.15625 671.332031 34.382812 C 672.757812 38.800781 672.070312 42.71875 671.445312 44.863281 Z M 640.214844 27.351562 L 661.503906 27.351562 L 622.21875 37.207031 L 600.9375 37.207031 Z M 606.84375 65.441406 L 602.398438 54.726562 L 602.398438 38.644531 L 621.953125 38.644531 C 624.105469 41.414062 625.898438 44.433594 627.273438 47.625 C 628.550781 50.585938 629.484375 53.699219 630.042969 56.878906 C 630.078125 57.078125 630.195312 57.253906 630.363281 57.363281 C 630.480469 57.4375 630.613281 57.472656 630.75 57.472656 C 630.8125 57.472656 630.875 57.464844 630.9375 57.449219 L 634.007812 56.609375 C 634.433594 57.871094 634.679688 59.191406 634.722656 60.542969 C 634.777344 62.210938 634.515625 63.855469 633.980469 65.441406 Z M 672.410156 99.328125 L 666.753906 90.417969 L 677.246094 90.417969 L 682.902344 99.328125 Z M 683.488281 97.574219 L 678.359375 89.488281 L 678.359375 78.5 L 680.992188 69.710938 L 683.488281 69.710938 Z M 683.488281 97.574219 " fill-opacity="1" fill-rule="nonzero"/></g><g clip-path="url(#8d2fe92699)"><path fill="#257acc" d="M 77.585938 107.4375 C 77.640625 107.429688 77.699219 107.414062 77.761719 107.394531 C 78.433594 107.148438 79.011719 105.660156 79.257812 105.054688 C 81.402344 99.726562 83.347656 91.523438 90.132812 88.382812 C 90.742188 88.101562 90.929688 88.003906 91.484375 87.675781 C 95.453125 85.367188 96.960938 83.960938 100.757812 81.746094 C 103.335938 80.242188 108.632812 78.84375 112.59375 79.90625 C 117.953125 81.335938 121.550781 83.613281 125.359375 87.570312 C 131.085938 93.511719 134.761719 99.128906 135.761719 107.710938 C 135.96875 109.523438 136.246094 119.195312 135.835938 120.734375 C 134.914062 124.152344 133.804688 125.519531 133.28125 127.46875 C 133.28125 127.46875 133.097656 128.085938 132.738281 127.980469 C 132.382812 127.875 132.585938 127.285156 132.585938 127.285156 C 135.574219 116.167969 134.125 121.445312 134.523438 112.128906 C 134.617188 109.914062 134.464844 107.511719 134.007812 105.402344 C 132.046875 96.273438 123.363281 85.496094 114.074219 81.785156 C 112.378906 81.109375 110.804688 82.78125 112.300781 84.160156 C 113.742188 85.480469 116.363281 84.398438 123.285156 91.496094 C 126.398438 94.683594 128.207031 97.40625 129.804688 101.390625 L 131.054688 105.351562 C 131.835938 108.242188 131.371094 111.171875 131.847656 114.605469 C 132.53125 119.53125 129.703125 128.859375 127.644531 132.59375 C 126.558594 134.558594 125.261719 136.601562 123.386719 137.914062 C 122.875 138.273438 120.894531 139.394531 121.457031 140.347656 C 122.222656 141.644531 123.457031 140.285156 124.082031 140.070312 C 124.347656 139.980469 124.625 139.863281 124.867188 139.71875 C 125.585938 139.296875 126.265625 138.78125 126.910156 138.253906 C 127.15625 138.054688 127.402344 137.851562 127.628906 137.628906 C 128.359375 136.921875 128.820312 136.285156 129.546875 135.539062 C 130.292969 134.773438 130.746094 134.347656 131.496094 133.503906 C 133.605469 131.121094 137.195312 127.660156 138.21875 123.84375 C 138.796875 121.691406 138.761719 111.40625 138.582031 109.007812 C 138.402344 106.640625 138.050781 104.390625 137.433594 102.261719 C 136.601562 99.394531 134.804688 94.59375 132.953125 92.167969 C 132.503906 91.582031 132.425781 91.304688 132.050781 90.734375 C 131.730469 90.242188 131.5 90 131.144531 89.503906 C 130.792969 89.019531 130.5 88.636719 130.105469 88.148438 C 129.359375 87.242188 128.707031 86.558594 127.945312 85.6875 C 119.628906 76.191406 107.101562 73.179688 96.5 81.148438 C 95.558594 81.855469 94.773438 82.40625 93.902344 83.070312 C 89.671875 86.289062 86.511719 85.855469 81.535156 93.453125 C 80.082031 95.664062 79.214844 97.871094 78.148438 100.4375 C 77.6875 101.542969 77.378906 102.730469 77.054688 103.882812 C 76.847656 104.632812 76.546875 105.453125 76.664062 106.246094 C 76.734375 106.734375 77.027344 107.488281 77.585938 107.4375 " fill-opacity="1" fill-rule="evenodd"/></g><path fill="#257acc" d="M 107.710938 100.851562 C 107.765625 102.175781 108.699219 101.230469 110.988281 102.855469 C 111.660156 103.332031 113.445312 105.257812 113.707031 105.160156 C 113.707031 105.160156 114.15625 104.925781 114.296875 104.460938 C 114.441406 103.996094 114.40625 103.441406 114.40625 103.441406 C 113.875 100.332031 108.75 98.082031 107.710938 100.851562 " fill-opacity="1" fill-rule="evenodd"/><g clip-path="url(#f9f1e2182a)"><path fill="#257acc" d="M 109.757812 150.179688 C 110.417969 150.429688 111.261719 149.867188 111.859375 149.664062 C 112.6875 149.382812 116.117188 148.121094 116.867188 147.660156 C 117.085938 147.523438 117.386719 147.328125 117.460938 147.058594 C 117.53125 146.792969 117.371094 146.304688 117.191406 146.105469 C 116.667969 145.546875 112.988281 146.769531 112.335938 146.882812 C 111.707031 146.992188 111.074219 147.183594 110.53125 147.53125 C 110.023438 147.859375 109.621094 148.332031 109.324219 148.855469 C 109.085938 149.273438 109.191406 149.863281 109.621094 150.113281 C 109.664062 150.140625 109.710938 150.164062 109.757812 150.179688 " fill-opacity="1" fill-rule="evenodd"/></g><path fill="#257acc" d="M 86.234375 70.871094 C 85.96875 71.359375 85.878906 71.867188 86.367188 72.152344 C 86.910156 72.46875 87.519531 72.078125 87.960938 71.789062 C 88.5 71.4375 88.78125 71.167969 89.328125 70.777344 C 89.71875 70.496094 90.136719 70.257812 90.535156 69.984375 C 91.28125 69.480469 95.46875 67.863281 94.832031 66.761719 C 94.726562 66.585938 94.574219 66.480469 94.375 66.429688 C 93.730469 66.257812 90.097656 67.777344 89.578125 68.109375 C 88.382812 68.875 86.949219 69.566406 86.234375 70.871094 " fill-opacity="1" fill-rule="evenodd"/><path fill="#257acc" d="M 80.039062 83.847656 C 79.816406 84.269531 79.753906 84.726562 80.003906 85.222656 C 80.421875 86.042969 81.554688 85.796875 82.148438 85.300781 C 82.667969 84.867188 83.136719 84.359375 83.625 83.890625 C 84.289062 83.246094 90.738281 77.363281 88.441406 77.316406 C 87.246094 77.292969 82.640625 81.273438 81.710938 82.109375 C 81.199219 82.566406 80.402344 83.152344 80.039062 83.847656 " fill-opacity="1" fill-rule="evenodd"/><path fill="#257acc" d="M 97.738281 148.136719 C 100.082031 148.761719 99.8125 148.898438 102.914062 146.941406 C 107.210938 144.230469 108.78125 141.75 107.371094 141.714844 C 107.226562 141.710938 98.6875 145.246094 97.96875 146.175781 C 97.519531 146.75 96.769531 147.875 97.738281 148.136719 " fill-opacity="1" fill-rule="evenodd"/><path fill="#257acc" d="M 96.679688 113.703125 C 96.726562 113.714844 96.773438 113.730469 96.828125 113.734375 C 97.179688 113.785156 97.515625 113.539062 97.769531 113.324219 C 98.863281 112.402344 99.609375 111 100.265625 109.753906 C 100.890625 108.570312 101.375 107.273438 102.164062 106.1875 C 102.851562 105.246094 103.832031 104.605469 104.742188 103.902344 C 105.476562 103.328125 106.730469 102.445312 106.8125 101.414062 C 106.890625 100.390625 105.488281 100.515625 104.851562 100.691406 C 102.003906 101.472656 100.808594 104.394531 99.191406 106.546875 C 98.003906 108.121094 96.050781 109.589844 95.949219 111.722656 C 95.921875 112.320312 95.972656 113.488281 96.679688 113.703125 " fill-opacity="1" fill-rule="evenodd"/><path fill="#257acc" d="M 82.578125 126.253906 C 82.828125 126.382812 83.753906 126.640625 84.171875 126.324219 C 85.226562 125.523438 85.789062 124.378906 86.410156 123.25 C 87.925781 120.503906 90.230469 117.21875 89.714844 113.429688 C 89.566406 112.347656 89.179688 107.777344 88.074219 107.882812 C 87.183594 108.480469 86.617188 112.78125 85.980469 115.132812 C 85.535156 116.777344 84.851562 118.011719 84.203125 119.160156 C 83.507812 120.402344 82.511719 121.679688 82.039062 123.03125 C 81.75 123.851562 81.625 125.765625 82.578125 126.253906 " fill-opacity="1" fill-rule="evenodd"/><path fill="#257acc" d="M 118.882812 146.488281 C 118.898438 146.546875 118.925781 146.605469 118.96875 146.65625 C 119.230469 147.015625 119.894531 146.859375 120.257812 146.785156 C 121.039062 146.625 121.628906 146.1875 122.277344 145.75 C 122.765625 145.421875 123.246094 145.082031 123.738281 144.757812 C 125.179688 143.804688 126.652344 142.871094 128.019531 141.804688 C 130.128906 140.171875 131.753906 138.023438 133.402344 135.957031 C 133.914062 135.308594 134.429688 134.667969 134.953125 134.035156 C 135.609375 133.242188 136.339844 132.511719 136.933594 131.667969 C 137.3125 131.136719 137.917969 130.285156 137.722656 129.589844 C 137.632812 129.265625 137.265625 128.929688 136.945312 128.828125 C 136.277344 128.605469 135.765625 129.179688 135.429688 129.675781 C 134.832031 130.554688 134.175781 131.320312 133.417969 132.0625 C 132.242188 133.21875 131.230469 134.523438 130.21875 135.820312 C 129.582031 136.636719 128.972656 137.476562 128.257812 138.226562 C 127.480469 139.046875 126.617188 139.773438 125.746094 140.488281 C 124.957031 141.132812 124.144531 141.75 123.332031 142.367188 C 122.550781 142.960938 121.695312 143.488281 120.820312 144.109375 C 120.304688 144.476562 119.761719 144.839844 119.34375 145.324219 C 119.101562 145.601562 118.761719 146.085938 118.882812 146.488281 " fill-opacity="1" fill-rule="evenodd"/><path fill="#257acc" d="M 78.128906 92.125 C 78.117188 92.210938 78.109375 92.300781 78.105469 92.386719 C 78.0625 93.269531 78.433594 94.5 79.515625 93.679688 C 80.050781 93.273438 80.429688 92.570312 80.824219 92.042969 C 81.957031 90.527344 83.066406 88.980469 84.355469 87.589844 C 85.878906 85.945312 87.621094 84.488281 88.953125 82.671875 C 90.03125 81.195312 90.992188 79.617188 92.226562 78.257812 C 93.433594 76.933594 95.027344 76.035156 96.558594 75.136719 C 97.25 74.726562 99.375 73.902344 99.082031 72.785156 C 98.808594 71.765625 96.789062 72.410156 96.167969 72.667969 C 92.386719 74.210938 89.90625 77.167969 87.570312 80.394531 C 86.828125 81.417969 86.035156 82.402344 85.171875 83.324219 C 84.304688 84.246094 83.402344 85.132812 82.523438 86.035156 C 81.484375 87.097656 80.554688 88.238281 79.632812 89.394531 C 78.992188 90.195312 78.277344 91.082031 78.128906 92.125 " fill-opacity="1" fill-rule="evenodd"/><path fill="#257acc" d="M 79.3125 107.851562 C 78.945312 109.21875 78.949219 109.898438 78.613281 111.371094 C 78.492188 111.914062 78.335938 114.449219 79.347656 114.234375 C 80.402344 114.011719 81.078125 111.738281 81.363281 110.910156 C 82.6875 107.0625 83.597656 103.113281 85.519531 99.484375 C 86.8125 97.039062 88.675781 94.683594 90.769531 92.859375 C 94.960938 89.214844 92.351562 88.554688 91.199219 89.195312 C 90.746094 89.445312 90.574219 89.683594 90.105469 90.023438 C 84.441406 94.121094 82.691406 97.492188 80.535156 104.222656 C 80.066406 105.6875 79.671875 106.5 79.3125 107.851562 " fill-opacity="1" fill-rule="evenodd"/><path fill="#257acc" d="M 88.375 137.753906 C 88.699219 138.640625 90.820312 138.15625 91.414062 137.914062 C 92.167969 137.613281 92.789062 137.128906 93.40625 136.613281 C 94.976562 135.304688 96.242188 133.734375 97.53125 132.160156 C 98.269531 131.253906 99.023438 130.195312 99.53125 129.140625 C 106.007812 115.6875 109.855469 111.195312 109.875 110.53125 C 109.898438 109.824219 110.128906 109.085938 109.878906 108.390625 C 109.519531 107.402344 108.59375 107.347656 107.800781 107.757812 C 107.003906 108.171875 106.695312 109.351562 106.359375 110.105469 C 105.601562 111.800781 104.460938 113.3125 103.539062 114.925781 C 102.691406 116.410156 100.59375 121.933594 99.402344 124.328125 C 98.039062 127.085938 96.378906 129.898438 94.339844 132.128906 C 93.222656 133.355469 91.945312 134.371094 90.613281 135.351562 C 89.902344 135.875 88.546875 136.285156 88.355469 137.289062 C 88.320312 137.476562 88.328125 137.628906 88.375 137.753906 " fill-opacity="1" fill-rule="evenodd"/><g clip-path="url(#b6478bf9f6)"><path fill="#257acc" d="M 128.554688 108.15625 C 128.265625 109.222656 128.453125 113.683594 128.386719 114.882812 C 128.15625 118.839844 128.480469 117.980469 127.789062 122.050781 C 127.328125 124.757812 127.296875 125.542969 125.625 129.101562 C 124.675781 131.121094 123.328125 133.074219 121.882812 134.460938 C 120.328125 135.953125 118.996094 136.820312 117.183594 137.820312 C 114.214844 139.460938 112.117188 138.851562 107.210938 144.230469 C 106.347656 145.179688 105.402344 146.050781 104.585938 147.039062 C 104.222656 147.480469 103.886719 147.941406 103.59375 148.429688 C 103.335938 148.859375 102.566406 150.066406 103.5 150.152344 C 103.832031 150.179688 104.230469 150.128906 104.546875 150.042969 C 104.871094 149.960938 105.179688 149.832031 105.449219 149.636719 C 113.144531 144.152344 115.265625 146.722656 118.816406 144.023438 C 119.292969 143.664062 119.773438 143.316406 120.242188 142.949219 C 120.441406 142.789062 120.675781 142.617188 120.820312 142.402344 C 121.039062 142.066406 121.066406 141.441406 120.804688 141.128906 C 120.464844 140.722656 119.859375 140.742188 119.402344 140.894531 C 119.058594 141.007812 118.765625 141.199219 118.453125 141.363281 C 117.707031 141.75 117.089844 142.011719 116.289062 142.355469 C 115.363281 142.753906 115.304688 142.707031 114.386719 143.011719 C 113.074219 143.449219 111.855469 144.097656 111.996094 143.042969 C 114.625 140.746094 117.972656 140.894531 122.113281 137.898438 C 128.261719 133.449219 131.410156 122.851562 130.535156 115.007812 C 130.054688 110.703125 131.5 107.253906 129.558594 107.1875 C 128.597656 107.199219 128.601562 107.980469 128.554688 108.15625 " fill-opacity="1" fill-rule="evenodd"/></g><path fill="#257acc" d="M 91.484375 82.273438 C 92.128906 82.933594 93.136719 82.183594 93.671875 81.753906 C 95.167969 80.5625 96.550781 79.21875 98.203125 78.230469 C 99.785156 77.285156 101.582031 76.617188 103.378906 76.195312 C 106.113281 75.554688 109.078125 75.207031 111.878906 75.449219 C 115.460938 75.757812 118.761719 77.230469 121.773438 79.117188 C 123.839844 80.410156 125.84375 81.78125 127.578125 83.5 C 129.542969 85.449219 131.476562 87.523438 133.152344 89.722656 C 134.421875 91.390625 135.4375 93.226562 136.3125 95.128906 C 137.5 97.722656 138.363281 100.4375 139.074219 103.195312 C 139.839844 106.179688 140.164062 109.292969 139.929688 112.371094 C 139.828125 113.703125 139.664062 115.054688 139.660156 116.390625 C 139.660156 116.988281 139.859375 118.027344 140.628906 118.066406 C 142.195312 118.152344 142.332031 115.398438 142.484375 114.375 C 142.648438 113.226562 142.738281 112.070312 142.796875 110.914062 C 142.96875 107.582031 142.3125 104.128906 141.40625 100.929688 C 140.925781 99.234375 140.308594 97.554688 139.59375 95.945312 C 138.335938 93.113281 136.726562 90.425781 134.871094 87.941406 C 132.765625 85.121094 130.394531 82.488281 127.707031 80.210938 C 125.195312 78.085938 122.398438 76.246094 119.34375 74.996094 C 118.472656 74.640625 117.582031 74.339844 116.671875 74.09375 C 115.5 73.777344 114.304688 73.554688 113.101562 73.371094 C 111.125 73.078125 109.222656 72.816406 107.214844 72.933594 C 104.496094 73.09375 101.769531 73.664062 99.289062 74.808594 C 97.914062 75.445312 96.527344 76.226562 95.304688 77.125 C 94.484375 77.730469 93.710938 78.402344 92.984375 79.121094 C 92.765625 79.339844 91.960938 80.171875 91.785156 80.449219 C 91.496094 80.902344 91.058594 81.558594 91.378906 82.136719 C 91.410156 82.191406 91.445312 82.234375 91.484375 82.273438 " fill-opacity="1" fill-rule="evenodd"/><path fill="#257acc" d="M 87.132812 133.183594 C 86.816406 134.289062 86.894531 135.046875 88.320312 134.886719 C 89.390625 134.769531 90.414062 133.34375 91.132812 132.664062 C 94.960938 129.039062 96.304688 126.71875 98.929688 121.484375 C 100.433594 118.488281 101.933594 115.652344 103.5 112.832031 C 105.707031 108.875 106.695312 105.527344 109.707031 106.332031 C 112.175781 106.992188 111.316406 109.613281 111.367188 111.8125 C 111.421875 113.984375 111.914062 115.65625 111.128906 118.582031 C 110.339844 121.523438 108.613281 124.460938 107.117188 126.167969 C 104.699219 128.917969 103.238281 129.1875 101.324219 130.683594 C 98.113281 133.195312 95.203125 136.222656 92.296875 139.066406 C 91.90625 139.453125 90.335938 140.378906 90.765625 141.117188 C 91.292969 142.03125 93.457031 141.203125 94.140625 140.890625 C 95.332031 140.34375 96.324219 139.410156 97.246094 138.503906 C 99.089844 136.683594 100.65625 135.128906 102.601562 133.570312 C 105.355469 131.367188 110.992188 129.25 112.808594 122.492188 C 114.539062 116.039062 114.132812 117.78125 113.894531 110.941406 C 113.699219 105.453125 114.070312 105.027344 109.40625 103.78125 C 106.207031 102.925781 103.863281 107.273438 102.582031 108.875 C 93.25 120.484375 96.714844 125.585938 88.832031 131.734375 C 88.382812 132.082031 87.25 132.757812 87.132812 133.183594 " fill-opacity="1" fill-rule="evenodd"/><path fill="#257acc" d="M 82.539062 78.300781 C 82.394531 78.839844 82.675781 79.324219 83.214844 79.472656 C 83.945312 79.664062 88.859375 76.183594 89.769531 75.589844 C 90.890625 74.859375 91.792969 74.03125 92.902344 73.234375 C 96.417969 70.703125 96.386719 70.433594 100.722656 71.546875 C 105.542969 72.792969 109.105469 70.8125 114.640625 72.292969 L 118.109375 73.21875 C 121.21875 74.050781 125.820312 76.300781 125.492188 76.183594 C 126.511719 76.546875 125.515625 74.597656 124.851562 74.019531 C 124.355469 73.59375 123.597656 72.890625 122.816406 72.652344 C 113.144531 69.707031 109.953125 69.164062 101.53125 69.257812 C 99.234375 69.28125 99.082031 68.382812 99.082031 68.382812 C 99.859375 66.863281 103.761719 68.546875 107.253906 68.308594 C 112.730469 67.9375 114.34375 68.503906 119.5 69.882812 C 129.070312 72.441406 127.085938 76.46875 128.683594 78.632812 C 129.066406 79.152344 129.464844 79.65625 129.867188 80.160156 C 130.433594 80.871094 131.007812 81.578125 131.59375 82.273438 C 132.238281 83.035156 132.882812 83.792969 133.542969 84.539062 C 134.148438 85.21875 134.773438 85.875 135.414062 86.523438 C 135.695312 86.8125 135.980469 87.101562 136.289062 87.363281 C 136.523438 87.566406 136.808594 87.839844 137.128906 87.894531 C 138.003906 88.039062 137.503906 86.476562 137.414062 86.078125 C 137.339844 85.738281 137.257812 85.386719 137.105469 85.070312 C 136.914062 84.667969 136.710938 84.273438 136.503906 83.882812 C 136.175781 83.265625 135.867188 82.730469 135.433594 82.15625 C 134.882812 81.4375 134.761719 81.121094 134.292969 80.472656 C 133.449219 79.308594 131.117188 76.863281 130.5625 75.601562 C 128.820312 71.652344 128.691406 70.976562 122.898438 68.316406 C 114.792969 64.589844 110.347656 66.773438 103.492188 65.863281 C 98.980469 65.261719 96.582031 66.59375 93.597656 69.035156 C 93.003906 69.523438 92.585938 69.820312 91.984375 70.296875 C 90.808594 71.21875 89.855469 71.894531 88.710938 72.746094 C 86.792969 74.167969 83.0625 76.359375 82.539062 78.300781 " fill-opacity="1" fill-rule="evenodd"/><path fill="#257acc" d="M 90.109375 104.554688 C 88.386719 110.976562 92.386719 111.777344 90.449219 118.984375 C 89.164062 123.761719 82.738281 130.03125 85.082031 130.65625 C 88.710938 131.628906 93.417969 121.769531 94.039062 119.453125 C 97.039062 108.289062 90.347656 114.210938 101.128906 101.976562 C 103.472656 99.320312 106.460938 97.304688 110.367188 98.347656 C 117.074219 100.140625 115.695312 106.574219 115.445312 113.949219 C 115.40625 115.09375 115.273438 116.183594 115.179688 117.226562 C 115.066406 118.425781 114.789062 119.375 114.648438 120.652344 C 114.195312 124.660156 111.230469 128.894531 108.640625 131.507812 C 105.632812 134.539062 100.976562 135.164062 99.863281 139.304688 C 101.800781 139.824219 102.707031 138.71875 105.460938 137.15625 L 110.425781 133.578125 C 118.5625 126.285156 119.832031 115.921875 118.59375 105.699219 C 117.960938 100.488281 116.183594 97.183594 110.820312 95.75 C 105.011719 94.195312 100.085938 99.800781 96.6875 103.085938 C 96.039062 103.714844 95.320312 104.355469 94.695312 105.042969 C 92.269531 107.6875 91.675781 105.457031 96.566406 101.1875 C 101.773438 96.640625 104.667969 92.871094 112.980469 95.089844 C 117.613281 96.328125 120.121094 101.300781 120.609375 105.710938 C 120.707031 106.585938 120.6875 107.269531 120.792969 108.140625 C 121.175781 111.21875 124.054688 111.511719 123.375 104.894531 C 122.808594 99.328125 118.542969 93.363281 112.859375 91.84375 C 109.789062 91.023438 107.398438 90.679688 104.277344 91.878906 C 102.402344 92.597656 100.363281 93.667969 98.792969 94.898438 C 97.148438 96.183594 95.6875 97.730469 94.265625 99.238281 C 92.847656 100.742188 90.824219 101.90625 90.109375 104.554688 " fill-opacity="1" fill-rule="evenodd"/><path fill="#257acc" d="M 80.085938 121.703125 C 80.976562 121.996094 82.058594 120.445312 82.359375 119.832031 C 82.757812 119.027344 83.074219 118.179688 83.449219 117.367188 C 84.414062 115.269531 85.265625 113.097656 85.996094 110.621094 C 86.277344 109.664062 86.382812 109.699219 86.640625 109.03125 C 87.308594 107.304688 87.078125 106.941406 88.503906 104.140625 C 91.167969 98.902344 95.417969 94.472656 100.363281 91.535156 C 102.175781 90.460938 102.128906 89.988281 105.292969 89.246094 C 115.023438 86.960938 125.109375 96.214844 124.929688 106.339844 L 124.703125 116.222656 C 124.621094 121.074219 123.769531 125.121094 121.070312 129.34375 C 120.082031 130.894531 118.363281 133.035156 117.574219 132.417969 C 116.789062 131.800781 121.464844 126.273438 122.105469 122.402344 C 122.652344 119.121094 123.269531 117.136719 123.113281 113.824219 C 123.058594 112.679688 122.875 111.730469 121.578125 111.976562 C 120 112.28125 120.667969 113.257812 120.222656 117.4375 C 119.042969 128.585938 111.703125 137.136719 101.890625 140.441406 C 99.601562 141.210938 94.988281 141.765625 94.257812 144.484375 C 93.683594 146.625 101.644531 143.316406 103.242188 142.78125 C 108.449219 141.023438 107.476562 141.277344 112.140625 138.570312 C 115.027344 136.898438 117.910156 135.996094 120.582031 133.898438 C 124.792969 130.585938 126.929688 124.300781 127.308594 118.429688 C 127.558594 114.488281 127.496094 110.988281 127.902344 106.777344 C 128.09375 104.746094 128.230469 102.988281 127.78125 101.1875 C 127.191406 98.832031 124.523438 94.753906 122.890625 92.890625 C 116.871094 86.027344 109.441406 84.976562 101.277344 87.71875 C 100.808594 87.875 99.1875 88.421875 99.972656 87.449219 C 101.652344 85.367188 105.535156 84.738281 107.988281 84.101562 C 109.550781 83.703125 110.632812 83.128906 110.695312 82.367188 C 110.351562 80.839844 109.019531 81.230469 107.773438 81.359375 C 104.53125 81.683594 101.652344 82.441406 99.121094 84.65625 C 97.449219 86.117188 96.433594 87.824219 95.015625 89.726562 C 93.617188 91.597656 92.296875 93.238281 90.886719 95.085938 C 89.597656 96.777344 88.164062 98.46875 86.960938 100.460938 C 85.890625 102.234375 84.910156 105.484375 83.964844 107.785156 C 83.078125 109.949219 81.949219 112.734375 81.121094 115.03125 C 80.6875 116.234375 80.078125 117.375 79.742188 118.613281 C 79.539062 119.359375 79.113281 120.933594 79.800781 121.535156 C 79.890625 121.613281 79.988281 121.667969 80.085938 121.703125 " fill-opacity="1" fill-rule="evenodd"/><path fill="#257acc" d="M 104.671875 127.097656 C 106.578125 126.125 107.109375 123.742188 108.058594 122.015625 C 109.347656 119.652344 111.519531 117.355469 111.054688 114.449219 C 110.953125 113.796875 110.484375 112.472656 109.582031 112.96875 C 108.671875 113.46875 108.386719 114.976562 108.171875 115.878906 C 107.902344 116.996094 107.726562 118.152344 107.152344 119.164062 C 106.488281 120.332031 105.503906 121.308594 104.683594 122.363281 C 103.820312 123.476562 102.847656 124.734375 102.457031 126.113281 C 102.367188 126.429688 102.28125 126.839844 102.476562 127.136719 C 102.503906 127.183594 102.53125 127.222656 102.566406 127.257812 C 103.054688 127.808594 104.140625 127.371094 104.671875 127.097656 " fill-opacity="1" fill-rule="evenodd"/><g clip-path="url(#0c89e12771)"><path fill="#257acc" d="M 122.457031 65.886719 C 122.488281 65.832031 122.507812 65.769531 122.515625 65.703125 C 122.582031 65.265625 122.003906 64.910156 121.691406 64.707031 C 121.027344 64.265625 120.261719 64.285156 119.53125 64.007812 C 118.882812 63.765625 117.792969 63.121094 117.214844 63.007812 C 115.515625 62.664062 115.679688 63.007812 113.960938 62.792969 C 111.3125 62.460938 106.773438 62.113281 104.140625 62.417969 C 103.324219 62.511719 102.503906 62.601562 101.683594 62.679688 C 100.660156 62.777344 99.625 62.78125 98.605469 62.953125 C 97.964844 63.066406 96.929688 63.238281 96.574219 63.871094 C 96.410156 64.164062 96.429688 64.65625 96.582031 64.957031 C 96.898438 65.582031 97.667969 65.539062 98.257812 65.425781 C 99.304688 65.226562 100.308594 65.148438 101.371094 65.15625 C 103.023438 65.171875 106.527344 65.675781 108.164062 65.472656 C 109.1875 65.34375 110.21875 65.179688 111.253906 65.15625 C 112.382812 65.128906 112.988281 64.9375 114.113281 65.046875 C 115.128906 65.148438 114.796875 64.847656 115.808594 64.984375 C 116.78125 65.117188 118.339844 66.019531 119.398438 66.199219 C 120.023438 66.300781 120.667969 66.429688 121.304688 66.382812 C 121.671875 66.359375 122.257812 66.253906 122.457031 65.886719 " fill-opacity="1" fill-rule="evenodd"/></g><g clip-path="url(#f4e95b41ea)"><path fill="#257acc" d="M 584.007812 81.554688 C 577.777344 81.554688 571.898438 83.960938 567.457031 88.339844 C 563.011719 92.71875 560.53125 98.554688 560.472656 104.761719 L 560.355469 116.816406 C 557.9375 117.011719 556.011719 119.03125 555.988281 121.484375 L 555.632812 158.582031 C 555.609375 161.1875 557.71875 163.332031 560.339844 163.355469 L 606.5625 163.796875 L 606.609375 163.796875 C 609.203125 163.796875 611.332031 161.695312 611.359375 159.113281 L 611.714844 122.015625 C 611.738281 119.40625 609.628906 117.265625 607.011719 117.238281 L 572.296875 116.910156 L 572.410156 104.878906 C 572.472656 98.570312 577.675781 93.4375 584.011719 93.4375 L 584.125 93.4375 C 588.066406 93.476562 591.6875 95.492188 593.8125 98.828125 C 593.980469 99.089844 594.199219 99.3125 594.453125 99.488281 L 594.574219 99.570312 C 595.4375 100.15625 596.617188 100.960938 598.3125 100.960938 C 598.410156 100.960938 598.507812 100.957031 598.609375 100.953125 C 598.785156 100.941406 598.972656 100.921875 599.179688 100.886719 C 599.210938 100.882812 599.25 100.878906 599.285156 100.871094 C 599.433594 100.847656 599.574219 100.816406 599.726562 100.777344 C 599.792969 100.757812 599.867188 100.738281 599.941406 100.71875 L 599.996094 100.703125 C 600.902344 100.429688 601.808594 99.957031 602.679688 99.292969 C 603.742188 98.484375 604.238281 97.359375 604.601562 96.539062 C 604.679688 96.359375 604.753906 96.1875 604.828125 96.039062 C 605.144531 95.386719 605.128906 94.625 604.789062 93.984375 C 600.71875 86.398438 592.84375 81.636719 584.238281 81.554688 C 584.160156 81.554688 584.085938 81.554688 584.007812 81.554688 Z M 584.007812 83.816406 C 584.078125 83.816406 584.148438 83.816406 584.214844 83.820312 C 592.261719 83.894531 599.230469 88.4375 602.78125 95.050781 C 602.363281 95.910156 602.058594 96.914062 601.296875 97.492188 C 600.726562 97.929688 600.039062 98.328125 599.320312 98.539062 L 599.316406 98.542969 C 599.265625 98.554688 599.210938 98.570312 599.160156 98.582031 C 599.070312 98.605469 598.980469 98.625 598.890625 98.640625 C 598.867188 98.644531 598.84375 98.648438 598.820312 98.652344 C 598.707031 98.671875 598.59375 98.683594 598.484375 98.691406 C 598.425781 98.695312 598.367188 98.695312 598.3125 98.695312 C 597.265625 98.695312 596.535156 98.15625 595.734375 97.617188 C 593.296875 93.785156 589.027344 91.21875 584.144531 91.171875 C 584.101562 91.171875 584.054688 91.171875 584.011719 91.171875 C 576.417969 91.171875 570.207031 97.28125 570.136719 104.855469 L 570 119.152344 L 606.988281 119.503906 C 608.355469 119.515625 609.453125 120.632812 609.441406 121.992188 L 609.085938 159.089844 C 609.070312 160.441406 607.964844 161.53125 606.609375 161.53125 L 606.585938 161.53125 L 560.359375 161.09375 C 558.992188 161.078125 557.894531 159.964844 557.90625 158.601562 L 558.265625 121.507812 C 558.277344 120.152344 559.382812 119.066406 560.738281 119.066406 L 560.765625 119.066406 L 562.609375 119.082031 L 562.746094 104.785156 C 562.859375 93.179688 572.378906 83.816406 584.007812 83.816406 " fill-opacity="1" fill-rule="nonzero"/></g><path fill="#257acc" d="M 583.699219 130.054688 C 579.660156 130.058594 576.339844 133.328125 576.300781 137.351562 C 576.28125 139.667969 577.351562 141.820312 579.128906 143.210938 L 578.46875 147.4375 C 578.367188 148.089844 578.554688 148.75 578.984375 149.25 C 579.410156 149.753906 580.035156 150.042969 580.695312 150.050781 L 586.460938 150.105469 L 586.484375 150.105469 C 587.136719 150.105469 587.757812 149.824219 588.191406 149.339844 C 588.628906 148.84375 588.828125 148.1875 588.738281 147.535156 L 588.160156 143.296875 C 589.964844 141.941406 591.078125 139.808594 591.101562 137.492188 C 591.121094 135.523438 590.367188 133.667969 588.984375 132.261719 C 587.597656 130.859375 585.746094 130.074219 583.773438 130.058594 Z M 583.699219 132.320312 L 583.75 132.320312 C 586.582031 132.347656 588.851562 134.652344 588.824219 137.472656 C 588.804688 139.5625 587.519531 141.347656 585.703125 142.117188 L 586.484375 147.839844 L 580.71875 147.785156 L 581.609375 142.078125 C 579.804688 141.273438 578.558594 139.464844 578.578125 137.375 C 578.601562 134.574219 580.890625 132.320312 583.699219 132.320312 " fill-opacity="1" fill-rule="nonzero"/><g fill="#ffffff" fill-opacity="1"><g transform="translate(238.307928, 62.110497)"><g><path d="M 11.609375 -23.546875 C 13.253906 -23.546875 14.707031 -23.203125 15.96875 -22.515625 C 17.226562 -21.835938 18.242188 -20.929688 19.015625 -19.796875 C 19.785156 -18.671875 20.242188 -17.425781 20.390625 -16.0625 L 17.21875 -16.0625 C 17.050781 -16.96875 16.722656 -17.789062 16.234375 -18.53125 C 15.753906 -19.269531 15.125 -19.859375 14.34375 -20.296875 C 13.5625 -20.742188 12.625 -20.96875 11.53125 -20.96875 C 10.125 -20.96875 8.9375 -20.632812 7.96875 -19.96875 C 7 -19.3125 6.265625 -18.296875 5.765625 -16.921875 C 5.273438 -15.554688 5.03125 -13.800781 5.03125 -11.65625 C 5.03125 -8.425781 5.582031 -6.050781 6.6875 -4.53125 C 7.800781 -3.019531 9.414062 -2.265625 11.53125 -2.265625 C 12.625 -2.265625 13.5625 -2.492188 14.34375 -2.953125 C 15.125 -3.410156 15.753906 -4.023438 16.234375 -4.796875 C 16.722656 -5.566406 17.050781 -6.40625 17.21875 -7.3125 L 20.390625 -7.3125 C 20.265625 -6.320312 19.992188 -5.367188 19.578125 -4.453125 C 19.171875 -3.535156 18.609375 -2.71875 17.890625 -2 C 17.171875 -1.289062 16.289062 -0.722656 15.25 -0.296875 C 14.207031 0.117188 12.992188 0.328125 11.609375 0.328125 C 9.523438 0.328125 7.742188 -0.144531 6.265625 -1.09375 C 4.796875 -2.050781 3.671875 -3.425781 2.890625 -5.21875 C 2.117188 -7.007812 1.734375 -9.164062 1.734375 -11.6875 C 1.734375 -14.207031 2.117188 -16.347656 2.890625 -18.109375 C 3.660156 -19.878906 4.78125 -21.226562 6.25 -22.15625 C 7.726562 -23.082031 9.515625 -23.546875 11.609375 -23.546875 Z M 11.609375 -23.546875 "/></g></g></g><g fill="#ffffff" fill-opacity="1"><g transform="translate(260.423823, 62.110497)"><g><path d="M 9.0625 0.328125 C 7.53125 0.328125 6.191406 0 5.046875 -0.65625 C 3.898438 -1.320312 3.007812 -2.289062 2.375 -3.5625 C 1.738281 -4.84375 1.421875 -6.398438 1.421875 -8.234375 C 1.421875 -9.972656 1.71875 -11.492188 2.3125 -12.796875 C 2.90625 -14.109375 3.769531 -15.125 4.90625 -15.84375 C 6.050781 -16.570312 7.4375 -16.9375 9.0625 -16.9375 C 10.59375 -16.9375 11.921875 -16.597656 13.046875 -15.921875 C 14.179688 -15.253906 15.054688 -14.269531 15.671875 -12.96875 C 16.296875 -11.675781 16.609375 -10.097656 16.609375 -8.234375 C 16.609375 -6.546875 16.320312 -5.054688 15.75 -3.765625 C 15.175781 -2.484375 14.328125 -1.476562 13.203125 -0.75 C 12.085938 -0.03125 10.707031 0.328125 9.0625 0.328125 Z M 9.0625 -2.03125 C 10.050781 -2.03125 10.890625 -2.28125 11.578125 -2.78125 C 12.265625 -3.28125 12.785156 -4 13.140625 -4.9375 C 13.492188 -5.882812 13.671875 -7.003906 13.671875 -8.296875 C 13.671875 -9.492188 13.515625 -10.566406 13.203125 -11.515625 C 12.890625 -12.460938 12.394531 -13.210938 11.71875 -13.765625 C 11.039062 -14.316406 10.15625 -14.59375 9.0625 -14.59375 C 8.050781 -14.59375 7.195312 -14.34375 6.5 -13.84375 C 5.8125 -13.351562 5.285156 -12.632812 4.921875 -11.6875 C 4.566406 -10.75 4.390625 -9.617188 4.390625 -8.296875 C 4.390625 -7.128906 4.546875 -6.066406 4.859375 -5.109375 C 5.179688 -4.160156 5.6875 -3.410156 6.375 -2.859375 C 7.0625 -2.304688 7.957031 -2.03125 9.0625 -2.03125 Z M 9.0625 -2.03125 "/></g></g></g><g fill="#ffffff" fill-opacity="1"><g transform="translate(278.476303, 62.110497)"><g><path d="M 2.453125 0 L 2.453125 -16.609375 L 5.328125 -16.609375 L 5.328125 -14.203125 C 5.597656 -14.660156 5.96875 -15.09375 6.4375 -15.5 C 6.914062 -15.90625 7.492188 -16.226562 8.171875 -16.46875 C 8.859375 -16.71875 9.644531 -16.84375 10.53125 -16.84375 C 11.582031 -16.84375 12.550781 -16.632812 13.4375 -16.21875 C 14.320312 -15.800781 15.03125 -15.148438 15.5625 -14.265625 C 16.09375 -13.390625 16.359375 -12.253906 16.359375 -10.859375 L 16.359375 0 L 13.375 0 L 13.375 -10.5625 C 13.375 -11.863281 13.035156 -12.828125 12.359375 -13.453125 C 11.679688 -14.078125 10.800781 -14.390625 9.71875 -14.390625 C 8.96875 -14.390625 8.265625 -14.269531 7.609375 -14.03125 C 6.960938 -13.789062 6.429688 -13.425781 6.015625 -12.9375 C 5.609375 -12.445312 5.40625 -11.832031 5.40625 -11.09375 L 5.40625 0 Z M 2.453125 0 "/></g></g></g><g fill="#ffffff" fill-opacity="1"><g transform="translate(297.010616, 62.110497)"><g><path d="M 9.0625 0.328125 C 7.53125 0.328125 6.191406 0 5.046875 -0.65625 C 3.898438 -1.320312 3.007812 -2.289062 2.375 -3.5625 C 1.738281 -4.84375 1.421875 -6.398438 1.421875 -8.234375 C 1.421875 -9.972656 1.71875 -11.492188 2.3125 -12.796875 C 2.90625 -14.109375 3.769531 -15.125 4.90625 -15.84375 C 6.050781 -16.570312 7.4375 -16.9375 9.0625 -16.9375 C 10.59375 -16.9375 11.921875 -16.597656 13.046875 -15.921875 C 14.179688 -15.253906 15.054688 -14.269531 15.671875 -12.96875 C 16.296875 -11.675781 16.609375 -10.097656 16.609375 -8.234375 C 16.609375 -6.546875 16.320312 -5.054688 15.75 -3.765625 C 15.175781 -2.484375 14.328125 -1.476562 13.203125 -0.75 C 12.085938 -0.03125 10.707031 0.328125 9.0625 0.328125 Z M 9.0625 -2.03125 C 10.050781 -2.03125 10.890625 -2.28125 11.578125 -2.78125 C 12.265625 -3.28125 12.785156 -4 13.140625 -4.9375 C 13.492188 -5.882812 13.671875 -7.003906 13.671875 -8.296875 C 13.671875 -9.492188 13.515625 -10.566406 13.203125 -11.515625 C 12.890625 -12.460938 12.394531 -13.210938 11.71875 -13.765625 C 11.039062 -14.316406 10.15625 -14.59375 9.0625 -14.59375 C 8.050781 -14.59375 7.195312 -14.34375 6.5 -13.84375 C 5.8125 -13.351562 5.285156 -12.632812 4.921875 -11.6875 C 4.566406 -10.75 4.390625 -9.617188 4.390625 -8.296875 C 4.390625 -7.128906 4.546875 -6.066406 4.859375 -5.109375 C 5.179688 -4.160156 5.6875 -3.410156 6.375 -2.859375 C 7.0625 -2.304688 7.957031 -2.03125 9.0625 -2.03125 Z M 9.0625 -2.03125 "/></g></g></g><g fill="#ffffff" fill-opacity="1"><g transform="translate(315.063097, 62.110497)"><g><path d="M 9.078125 -16.9375 C 10.265625 -16.9375 11.332031 -16.707031 12.28125 -16.25 C 13.238281 -15.789062 14.019531 -15.144531 14.625 -14.3125 C 15.226562 -13.476562 15.601562 -12.492188 15.75 -11.359375 L 13.125 -11.359375 C 13.03125 -11.929688 12.804688 -12.457031 12.453125 -12.9375 C 12.109375 -13.425781 11.648438 -13.8125 11.078125 -14.09375 C 10.515625 -14.382812 9.851562 -14.53125 9.09375 -14.53125 C 7.664062 -14.53125 6.503906 -14.015625 5.609375 -12.984375 C 4.722656 -11.960938 4.28125 -10.390625 4.28125 -8.265625 C 4.28125 -6.347656 4.691406 -4.8125 5.515625 -3.65625 C 6.335938 -2.507812 7.546875 -1.9375 9.140625 -1.9375 C 9.898438 -1.9375 10.5625 -2.082031 11.125 -2.375 C 11.6875 -2.675781 12.140625 -3.066406 12.484375 -3.546875 C 12.828125 -4.035156 13.046875 -4.5625 13.140625 -5.125 L 15.71875 -5.125 C 15.582031 -4.007812 15.207031 -3.046875 14.59375 -2.234375 C 13.988281 -1.421875 13.210938 -0.789062 12.265625 -0.34375 C 11.316406 0.101562 10.253906 0.328125 9.078125 0.328125 C 7.585938 0.328125 6.265625 0 5.109375 -0.65625 C 3.960938 -1.3125 3.0625 -2.273438 2.40625 -3.546875 C 1.75 -4.828125 1.421875 -6.390625 1.421875 -8.234375 C 1.421875 -9.972656 1.71875 -11.492188 2.3125 -12.796875 C 2.914062 -14.097656 3.785156 -15.113281 4.921875 -15.84375 C 6.066406 -16.570312 7.453125 -16.9375 9.078125 -16.9375 Z M 9.078125 -16.9375 "/></g></g></g><g fill="#ffffff" fill-opacity="1"><g transform="translate(332.392836, 62.110497)"><g><path d="M 4.578125 -7.609375 C 4.578125 -6.566406 4.75 -5.617188 5.09375 -4.765625 C 5.445312 -3.910156 5.976562 -3.226562 6.6875 -2.71875 C 7.40625 -2.21875 8.296875 -1.96875 9.359375 -1.96875 C 10.421875 -1.96875 11.332031 -2.210938 12.09375 -2.703125 C 12.863281 -3.203125 13.359375 -3.914062 13.578125 -4.84375 L 16.390625 -4.84375 C 16.179688 -3.726562 15.726562 -2.78125 15.03125 -2 C 14.332031 -1.226562 13.488281 -0.644531 12.5 -0.25 C 11.519531 0.132812 10.492188 0.328125 9.421875 0.328125 C 7.867188 0.328125 6.503906 -0.0078125 5.328125 -0.6875 C 4.148438 -1.363281 3.226562 -2.332031 2.5625 -3.59375 C 1.90625 -4.863281 1.578125 -6.378906 1.578125 -8.140625 C 1.578125 -9.890625 1.875 -11.421875 2.46875 -12.734375 C 3.070312 -14.054688 3.941406 -15.085938 5.078125 -15.828125 C 6.222656 -16.566406 7.597656 -16.9375 9.203125 -16.9375 C 10.765625 -16.9375 12.085938 -16.597656 13.171875 -15.921875 C 14.253906 -15.242188 15.078125 -14.289062 15.640625 -13.0625 C 16.203125 -11.84375 16.484375 -10.390625 16.484375 -8.703125 L 16.484375 -7.609375 Z M 4.59375 -9.625 L 13.625 -9.625 C 13.625 -10.570312 13.460938 -11.425781 13.140625 -12.1875 C 12.816406 -12.957031 12.328125 -13.566406 11.671875 -14.015625 C 11.015625 -14.460938 10.1875 -14.6875 9.1875 -14.6875 C 8.144531 -14.6875 7.285156 -14.4375 6.609375 -13.9375 C 5.929688 -13.4375 5.421875 -12.796875 5.078125 -12.015625 C 4.742188 -11.242188 4.582031 -10.445312 4.59375 -9.625 Z M 4.59375 -9.625 "/></g></g></g><g fill="#ffffff" fill-opacity="1"><g transform="translate(350.477441, 62.110497)"><g/></g></g><g fill="#ffffff" fill-opacity="1"><g transform="translate(357.881528, 62.110497)"><g><path d="M 2.453125 0 L 2.453125 -16.609375 L 5.328125 -16.609375 L 5.328125 -14.203125 C 5.597656 -14.660156 5.96875 -15.09375 6.4375 -15.5 C 6.914062 -15.90625 7.492188 -16.226562 8.171875 -16.46875 C 8.859375 -16.71875 9.644531 -16.84375 10.53125 -16.84375 C 11.582031 -16.84375 12.550781 -16.632812 13.4375 -16.21875 C 14.320312 -15.800781 15.03125 -15.148438 15.5625 -14.265625 C 16.09375 -13.390625 16.359375 -12.253906 16.359375 -10.859375 L 16.359375 0 L 13.375 0 L 13.375 -10.5625 C 13.375 -11.863281 13.035156 -12.828125 12.359375 -13.453125 C 11.679688 -14.078125 10.800781 -14.390625 9.71875 -14.390625 C 8.96875 -14.390625 8.265625 -14.269531 7.609375 -14.03125 C 6.960938 -13.789062 6.429688 -13.425781 6.015625 -12.9375 C 5.609375 -12.445312 5.40625 -11.832031 5.40625 -11.09375 L 5.40625 0 Z M 2.453125 0 "/></g></g></g><g fill="#ffffff" fill-opacity="1"><g transform="translate(376.415848, 62.110497)"><g><path d="M 8.5625 0.328125 C 7.695312 0.316406 6.878906 0.191406 6.109375 -0.046875 C 5.347656 -0.296875 4.671875 -0.65625 4.078125 -1.125 C 3.492188 -1.59375 3.03125 -2.175781 2.6875 -2.875 C 2.351562 -3.582031 2.1875 -4.398438 2.1875 -5.328125 L 2.1875 -16.609375 L 5.15625 -16.609375 L 5.15625 -5.640625 C 5.15625 -4.554688 5.488281 -3.675781 6.15625 -3 C 6.820312 -2.320312 7.832031 -1.984375 9.1875 -1.984375 C 10.40625 -1.984375 11.382812 -2.300781 12.125 -2.9375 C 12.875 -3.582031 13.25 -4.535156 13.25 -5.796875 L 13.25 -16.609375 L 16.203125 -16.609375 L 16.203125 0 L 13.84375 0 L 13.546875 -3.1875 C 13.335938 -2.34375 12.988281 -1.664062 12.5 -1.15625 C 12.019531 -0.644531 11.4375 -0.265625 10.75 -0.015625 C 10.070312 0.222656 9.34375 0.335938 8.5625 0.328125 Z M 8.5625 0.328125 "/></g></g></g><g fill="#ffffff" fill-opacity="1"><g transform="translate(394.80561, 62.110497)"><g><path d="M 4.578125 -7.609375 C 4.578125 -6.566406 4.75 -5.617188 5.09375 -4.765625 C 5.445312 -3.910156 5.976562 -3.226562 6.6875 -2.71875 C 7.40625 -2.21875 8.296875 -1.96875 9.359375 -1.96875 C 10.421875 -1.96875 11.332031 -2.210938 12.09375 -2.703125 C 12.863281 -3.203125 13.359375 -3.914062 13.578125 -4.84375 L 16.390625 -4.84375 C 16.179688 -3.726562 15.726562 -2.78125 15.03125 -2 C 14.332031 -1.226562 13.488281 -0.644531 12.5 -0.25 C 11.519531 0.132812 10.492188 0.328125 9.421875 0.328125 C 7.867188 0.328125 6.503906 -0.0078125 5.328125 -0.6875 C 4.148438 -1.363281 3.226562 -2.332031 2.5625 -3.59375 C 1.90625 -4.863281 1.578125 -6.378906 1.578125 -8.140625 C 1.578125 -9.890625 1.875 -11.421875 2.46875 -12.734375 C 3.070312 -14.054688 3.941406 -15.085938 5.078125 -15.828125 C 6.222656 -16.566406 7.597656 -16.9375 9.203125 -16.9375 C 10.765625 -16.9375 12.085938 -16.597656 13.171875 -15.921875 C 14.253906 -15.242188 15.078125 -14.289062 15.640625 -13.0625 C 16.203125 -11.84375 16.484375 -10.390625 16.484375 -8.703125 L 16.484375 -7.609375 Z M 4.59375 -9.625 L 13.625 -9.625 C 13.625 -10.570312 13.460938 -11.425781 13.140625 -12.1875 C 12.816406 -12.957031 12.328125 -13.566406 11.671875 -14.015625 C 11.015625 -14.460938 10.1875 -14.6875 9.1875 -14.6875 C 8.144531 -14.6875 7.285156 -14.4375 6.609375 -13.9375 C 5.929688 -13.4375 5.421875 -12.796875 5.078125 -12.015625 C 4.742188 -11.242188 4.582031 -10.445312 4.59375 -9.625 Z M 4.59375 -9.625 "/></g></g></g><g fill="#ffffff" fill-opacity="1"><g transform="translate(412.890215, 62.110497)"><g><path d="M 8.359375 0.328125 C 7.203125 0.328125 6.125 0.148438 5.125 -0.203125 C 4.132812 -0.566406 3.3125 -1.128906 2.65625 -1.890625 C 2.007812 -2.660156 1.597656 -3.640625 1.421875 -4.828125 L 4.125 -4.828125 C 4.28125 -4.179688 4.550781 -3.640625 4.9375 -3.203125 C 5.332031 -2.765625 5.820312 -2.4375 6.40625 -2.21875 C 7 -2 7.644531 -1.890625 8.34375 -1.890625 C 9.445312 -1.890625 10.34375 -2.097656 11.03125 -2.515625 C 11.71875 -2.929688 12.0625 -3.578125 12.0625 -4.453125 C 12.0625 -5.054688 11.878906 -5.539062 11.515625 -5.90625 C 11.160156 -6.28125 10.609375 -6.554688 9.859375 -6.734375 L 6.421875 -7.578125 C 5.085938 -7.898438 4.015625 -8.40625 3.203125 -9.09375 C 2.398438 -9.78125 2 -10.738281 2 -11.96875 C 1.988281 -12.9375 2.21875 -13.789062 2.6875 -14.53125 C 3.164062 -15.269531 3.875 -15.851562 4.8125 -16.28125 C 5.757812 -16.71875 6.9375 -16.9375 8.34375 -16.9375 C 10.132812 -16.9375 11.582031 -16.53125 12.6875 -15.71875 C 13.800781 -14.90625 14.378906 -13.71875 14.421875 -12.15625 L 11.8125 -12.15625 C 11.695312 -12.945312 11.335938 -13.578125 10.734375 -14.046875 C 10.128906 -14.515625 9.316406 -14.75 8.296875 -14.75 C 7.242188 -14.75 6.382812 -14.535156 5.71875 -14.109375 C 5.050781 -13.679688 4.71875 -13.023438 4.71875 -12.140625 C 4.71875 -11.554688 4.953125 -11.09375 5.421875 -10.75 C 5.898438 -10.414062 6.597656 -10.132812 7.515625 -9.90625 L 10.84375 -9.078125 C 11.613281 -8.867188 12.25 -8.597656 12.75 -8.265625 C 13.25 -7.941406 13.644531 -7.570312 13.9375 -7.15625 C 14.226562 -6.75 14.4375 -6.320312 14.5625 -5.875 C 14.6875 -5.4375 14.75 -5.015625 14.75 -4.609375 C 14.75 -3.585938 14.492188 -2.710938 13.984375 -1.984375 C 13.472656 -1.253906 12.742188 -0.6875 11.796875 -0.28125 C 10.847656 0.125 9.703125 0.328125 8.359375 0.328125 Z M 8.359375 0.328125 "/></g></g></g><g fill="#ffffff" fill-opacity="1"><g transform="translate(429.320546, 62.110497)"><g><path d="M 11.109375 -14.4375 L 7.375 -14.4375 L 7.375 -4.109375 C 7.375 -3.523438 7.429688 -3.09375 7.546875 -2.8125 C 7.671875 -2.539062 7.878906 -2.367188 8.171875 -2.296875 C 8.472656 -2.222656 8.878906 -2.1875 9.390625 -2.1875 L 11.21875 -2.1875 L 11.21875 -0.1875 C 11.007812 -0.113281 10.695312 -0.0507812 10.28125 0 C 9.875 0.0507812 9.363281 0.078125 8.75 0.078125 C 7.601562 0.078125 6.710938 -0.0703125 6.078125 -0.375 C 5.453125 -0.6875 5.015625 -1.148438 4.765625 -1.765625 C 4.515625 -2.378906 4.390625 -3.128906 4.390625 -4.015625 L 4.390625 -14.4375 L 1.6875 -14.4375 L 1.6875 -16.609375 L 4.46875 -16.609375 L 5.1875 -21.4375 L 7.375 -21.4375 L 7.375 -16.625 L 11.109375 -16.625 Z M 11.109375 -14.4375 "/></g></g></g><g fill="#ffffff" fill-opacity="1"><g transform="translate(442.249596, 62.110497)"><g><path d="M 2.453125 0 L 2.453125 -16.609375 L 5.28125 -16.609375 L 5.28125 -13.40625 C 5.5625 -14.195312 5.953125 -14.851562 6.453125 -15.375 C 6.960938 -15.894531 7.539062 -16.285156 8.1875 -16.546875 C 8.832031 -16.804688 9.503906 -16.9375 10.203125 -16.9375 C 10.441406 -16.9375 10.679688 -16.914062 10.921875 -16.875 C 11.160156 -16.84375 11.34375 -16.789062 11.46875 -16.71875 L 11.46875 -13.84375 C 11.3125 -13.914062 11.101562 -13.960938 10.84375 -13.984375 C 10.59375 -14.015625 10.382812 -14.03125 10.21875 -14.03125 C 9.550781 -14.082031 8.925781 -14.046875 8.34375 -13.921875 C 7.769531 -13.796875 7.265625 -13.582031 6.828125 -13.28125 C 6.390625 -12.976562 6.039062 -12.582031 5.78125 -12.09375 C 5.53125 -11.613281 5.40625 -11.023438 5.40625 -10.328125 L 5.40625 0 Z M 2.453125 0 "/></g></g></g><g fill="#ffffff" fill-opacity="1"><g transform="translate(454.696813, 62.110497)"><g><path d="M 9.0625 0.328125 C 7.53125 0.328125 6.191406 0 5.046875 -0.65625 C 3.898438 -1.320312 3.007812 -2.289062 2.375 -3.5625 C 1.738281 -4.84375 1.421875 -6.398438 1.421875 -8.234375 C 1.421875 -9.972656 1.71875 -11.492188 2.3125 -12.796875 C 2.90625 -14.109375 3.769531 -15.125 4.90625 -15.84375 C 6.050781 -16.570312 7.4375 -16.9375 9.0625 -16.9375 C 10.59375 -16.9375 11.921875 -16.597656 13.046875 -15.921875 C 14.179688 -15.253906 15.054688 -14.269531 15.671875 -12.96875 C 16.296875 -11.675781 16.609375 -10.097656 16.609375 -8.234375 C 16.609375 -6.546875 16.320312 -5.054688 15.75 -3.765625 C 15.175781 -2.484375 14.328125 -1.476562 13.203125 -0.75 C 12.085938 -0.03125 10.707031 0.328125 9.0625 0.328125 Z M 9.0625 -2.03125 C 10.050781 -2.03125 10.890625 -2.28125 11.578125 -2.78125 C 12.265625 -3.28125 12.785156 -4 13.140625 -4.9375 C 13.492188 -5.882812 13.671875 -7.003906 13.671875 -8.296875 C 13.671875 -9.492188 13.515625 -10.566406 13.203125 -11.515625 C 12.890625 -12.460938 12.394531 -13.210938 11.71875 -13.765625 C 11.039062 -14.316406 10.15625 -14.59375 9.0625 -14.59375 C 8.050781 -14.59375 7.195312 -14.34375 6.5 -13.84375 C 5.8125 -13.351562 5.285156 -12.632812 4.921875 -11.6875 C 4.566406 -10.75 4.390625 -9.617188 4.390625 -8.296875 C 4.390625 -7.128906 4.546875 -6.066406 4.859375 -5.109375 C 5.179688 -4.160156 5.6875 -3.410156 6.375 -2.859375 C 7.0625 -2.304688 7.957031 -2.03125 9.0625 -2.03125 Z M 9.0625 -2.03125 "/></g></g></g><g fill="#ffffff" fill-opacity="1"><g transform="translate(472.749301, 62.110497)"><g><path d="M 8.359375 0.328125 C 7.203125 0.328125 6.125 0.148438 5.125 -0.203125 C 4.132812 -0.566406 3.3125 -1.128906 2.65625 -1.890625 C 2.007812 -2.660156 1.597656 -3.640625 1.421875 -4.828125 L 4.125 -4.828125 C 4.28125 -4.179688 4.550781 -3.640625 4.9375 -3.203125 C 5.332031 -2.765625 5.820312 -2.4375 6.40625 -2.21875 C 7 -2 7.644531 -1.890625 8.34375 -1.890625 C 9.445312 -1.890625 10.34375 -2.097656 11.03125 -2.515625 C 11.71875 -2.929688 12.0625 -3.578125 12.0625 -4.453125 C 12.0625 -5.054688 11.878906 -5.539062 11.515625 -5.90625 C 11.160156 -6.28125 10.609375 -6.554688 9.859375 -6.734375 L 6.421875 -7.578125 C 5.085938 -7.898438 4.015625 -8.40625 3.203125 -9.09375 C 2.398438 -9.78125 2 -10.738281 2 -11.96875 C 1.988281 -12.9375 2.21875 -13.789062 2.6875 -14.53125 C 3.164062 -15.269531 3.875 -15.851562 4.8125 -16.28125 C 5.757812 -16.71875 6.9375 -16.9375 8.34375 -16.9375 C 10.132812 -16.9375 11.582031 -16.53125 12.6875 -15.71875 C 13.800781 -14.90625 14.378906 -13.71875 14.421875 -12.15625 L 11.8125 -12.15625 C 11.695312 -12.945312 11.335938 -13.578125 10.734375 -14.046875 C 10.128906 -14.515625 9.316406 -14.75 8.296875 -14.75 C 7.242188 -14.75 6.382812 -14.535156 5.71875 -14.109375 C 5.050781 -13.679688 4.71875 -13.023438 4.71875 -12.140625 C 4.71875 -11.554688 4.953125 -11.09375 5.421875 -10.75 C 5.898438 -10.414062 6.597656 -10.132812 7.515625 -9.90625 L 10.84375 -9.078125 C 11.613281 -8.867188 12.25 -8.597656 12.75 -8.265625 C 13.25 -7.941406 13.644531 -7.570312 13.9375 -7.15625 C 14.226562 -6.75 14.4375 -6.320312 14.5625 -5.875 C 14.6875 -5.4375 14.75 -5.015625 14.75 -4.609375 C 14.75 -3.585938 14.492188 -2.710938 13.984375 -1.984375 C 13.472656 -1.253906 12.742188 -0.6875 11.796875 -0.28125 C 10.847656 0.125 9.703125 0.328125 8.359375 0.328125 Z M 8.359375 0.328125 "/></g></g></g><g fill="#257acc" fill-opacity="1"><g transform="translate(293.389061, 92.977397)"><g><path d="M 11.328125 0.328125 C 10.179688 0.328125 9.054688 0.179688 7.953125 -0.109375 C 6.847656 -0.398438 5.835938 -0.832031 4.921875 -1.40625 C 4.015625 -1.988281 3.265625 -2.710938 2.671875 -3.578125 C 2.078125 -4.453125 1.722656 -5.472656 1.609375 -6.640625 L 6.40625 -6.640625 C 6.570312 -5.929688 6.878906 -5.332031 7.328125 -4.84375 C 7.773438 -4.363281 8.34375 -3.992188 9.03125 -3.734375 C 9.71875 -3.484375 10.476562 -3.359375 11.3125 -3.359375 C 12.164062 -3.359375 12.945312 -3.460938 13.65625 -3.671875 C 14.363281 -3.890625 14.929688 -4.210938 15.359375 -4.640625 C 15.785156 -5.078125 16 -5.625 16 -6.28125 C 16 -6.863281 15.820312 -7.34375 15.46875 -7.71875 C 15.125 -8.09375 14.65625 -8.398438 14.0625 -8.640625 C 13.476562 -8.878906 12.8125 -9.070312 12.0625 -9.21875 L 8.046875 -10.03125 C 6.285156 -10.363281 4.890625 -11.0625 3.859375 -12.125 C 2.835938 -13.195312 2.3125 -14.625 2.28125 -16.40625 C 2.269531 -17.851562 2.65625 -19.109375 3.4375 -20.171875 C 4.226562 -21.242188 5.300781 -22.066406 6.65625 -22.640625 C 8.007812 -23.222656 9.53125 -23.515625 11.21875 -23.515625 C 13.21875 -23.515625 14.898438 -23.203125 16.265625 -22.578125 C 17.628906 -21.953125 18.664062 -21.101562 19.375 -20.03125 C 20.09375 -18.96875 20.460938 -17.785156 20.484375 -16.484375 L 15.765625 -16.484375 C 15.679688 -17.296875 15.4375 -17.941406 15.03125 -18.421875 C 14.625 -18.898438 14.101562 -19.242188 13.46875 -19.453125 C 12.832031 -19.671875 12.109375 -19.78125 11.296875 -19.78125 C 10.671875 -19.78125 10.101562 -19.710938 9.59375 -19.578125 C 9.082031 -19.441406 8.648438 -19.242188 8.296875 -18.984375 C 7.953125 -18.734375 7.679688 -18.4375 7.484375 -18.09375 C 7.296875 -17.757812 7.203125 -17.378906 7.203125 -16.953125 C 7.203125 -16.273438 7.425781 -15.726562 7.875 -15.3125 C 8.320312 -14.894531 9.160156 -14.550781 10.390625 -14.28125 L 14.375 -13.453125 C 15.800781 -13.179688 16.929688 -12.769531 17.765625 -12.21875 C 18.609375 -11.675781 19.238281 -11.0625 19.65625 -10.375 C 20.082031 -9.6875 20.363281 -8.988281 20.5 -8.28125 C 20.632812 -7.570312 20.703125 -6.914062 20.703125 -6.3125 C 20.703125 -5.0625 20.304688 -3.929688 19.515625 -2.921875 C 18.734375 -1.921875 17.640625 -1.128906 16.234375 -0.546875 C 14.835938 0.0351562 13.203125 0.328125 11.328125 0.328125 Z M 11.328125 0.328125 "/></g></g></g><g fill="#257acc" fill-opacity="1"><g transform="translate(315.665564, 92.977397)"><g><path d="M 5.859375 -7.234375 C 5.847656 -6.378906 5.984375 -5.640625 6.265625 -5.015625 C 6.546875 -4.390625 6.945312 -3.90625 7.46875 -3.5625 C 8 -3.226562 8.640625 -3.0625 9.390625 -3.0625 C 10.191406 -3.0625 10.894531 -3.234375 11.5 -3.578125 C 12.113281 -3.921875 12.535156 -4.484375 12.765625 -5.265625 L 17 -5.265625 C 16.8125 -4.085938 16.335938 -3.082031 15.578125 -2.25 C 14.828125 -1.414062 13.914062 -0.773438 12.84375 -0.328125 C 11.78125 0.109375 10.671875 0.328125 9.515625 0.328125 C 7.867188 0.328125 6.421875 -0.015625 5.171875 -0.703125 C 3.929688 -1.398438 2.960938 -2.378906 2.265625 -3.640625 C 1.566406 -4.910156 1.21875 -6.398438 1.21875 -8.109375 C 1.21875 -9.765625 1.53125 -11.257812 2.15625 -12.59375 C 2.789062 -13.925781 3.710938 -14.984375 4.921875 -15.765625 C 6.128906 -16.546875 7.578125 -16.9375 9.265625 -16.9375 C 10.960938 -16.9375 12.382812 -16.578125 13.53125 -15.859375 C 14.6875 -15.148438 15.554688 -14.160156 16.140625 -12.890625 C 16.722656 -11.617188 17.015625 -10.15625 17.015625 -8.5 L 17.015625 -7.234375 Z M 5.84375 -10.015625 L 12.625 -10.015625 C 12.625 -10.679688 12.5 -11.289062 12.25 -11.84375 C 12.007812 -12.40625 11.640625 -12.847656 11.140625 -13.171875 C 10.640625 -13.492188 10.015625 -13.65625 9.265625 -13.65625 C 8.535156 -13.65625 7.914062 -13.476562 7.40625 -13.125 C 6.90625 -12.78125 6.519531 -12.328125 6.25 -11.765625 C 5.976562 -11.210938 5.84375 -10.628906 5.84375 -10.015625 Z M 5.84375 -10.015625 "/></g></g></g><g fill="#257acc" fill-opacity="1"><g transform="translate(333.926836, 92.977397)"><g><path d="M 2 0 L 2 -16.609375 L 6.515625 -16.609375 L 6.515625 -12.671875 C 6.785156 -13.515625 7.164062 -14.253906 7.65625 -14.890625 C 8.144531 -15.535156 8.734375 -16.035156 9.421875 -16.390625 C 10.117188 -16.753906 10.910156 -16.9375 11.796875 -16.9375 C 11.941406 -16.9375 12.082031 -16.925781 12.21875 -16.90625 C 12.351562 -16.882812 12.453125 -16.859375 12.515625 -16.828125 L 12.515625 -12.375 C 12.421875 -12.414062 12.304688 -12.441406 12.171875 -12.453125 C 12.035156 -12.460938 11.914062 -12.472656 11.8125 -12.484375 C 10.882812 -12.554688 10.09375 -12.523438 9.4375 -12.390625 C 8.789062 -12.265625 8.265625 -12.046875 7.859375 -11.734375 C 7.453125 -11.429688 7.15625 -11.050781 6.96875 -10.59375 C 6.789062 -10.144531 6.703125 -9.644531 6.703125 -9.09375 L 6.703125 0 Z M 2 0 "/></g></g></g><g fill="#257acc" fill-opacity="1"><g transform="translate(346.98437, 92.977397)"><g><path d="M 16.28125 -16.609375 L 10.0625 0 L 6.671875 0 L 0.421875 -16.609375 L 4.65625 -16.609375 L 8.28125 -6.015625 L 8.421875 -6.015625 L 12 -16.609375 Z M 16.28125 -16.609375 "/></g></g></g><g fill="#257acc" fill-opacity="1"><g transform="translate(363.687734, 92.977397)"><g><path d="M 6.734375 -16.609375 L 6.734375 0 L 2.25 0 L 2.25 -16.609375 Z M 6.78125 -23.203125 L 6.78125 -18.984375 L 2.21875 -18.984375 L 2.21875 -23.203125 Z M 6.78125 -23.203125 "/></g></g></g><g fill="#257acc" fill-opacity="1"><g transform="translate(372.665795, 92.977397)"><g><path d="M 9.125 -16.9375 C 10.519531 -16.9375 11.722656 -16.648438 12.734375 -16.078125 C 13.742188 -15.515625 14.539062 -14.75 15.125 -13.78125 C 15.707031 -12.820312 16.039062 -11.742188 16.125 -10.546875 L 12.21875 -10.546875 C 12.144531 -10.992188 11.988281 -11.429688 11.75 -11.859375 C 11.519531 -12.296875 11.191406 -12.65625 10.765625 -12.9375 C 10.335938 -13.21875 9.800781 -13.359375 9.15625 -13.359375 C 8.0625 -13.359375 7.175781 -12.9375 6.5 -12.09375 C 5.820312 -11.257812 5.484375 -9.984375 5.484375 -8.265625 C 5.484375 -6.648438 5.8125 -5.367188 6.46875 -4.421875 C 7.132812 -3.472656 8.0625 -3 9.25 -3 C 9.882812 -3 10.410156 -3.15625 10.828125 -3.46875 C 11.253906 -3.78125 11.582031 -4.148438 11.8125 -4.578125 C 12.050781 -5.015625 12.203125 -5.421875 12.265625 -5.796875 L 16.078125 -5.796875 C 16.003906 -4.648438 15.671875 -3.613281 15.078125 -2.6875 C 14.492188 -1.757812 13.691406 -1.023438 12.671875 -0.484375 C 11.660156 0.0546875 10.476562 0.328125 9.125 0.328125 C 7.582031 0.328125 6.207031 -0.015625 5 -0.703125 C 3.789062 -1.390625 2.835938 -2.375 2.140625 -3.65625 C 1.453125 -4.9375 1.109375 -6.460938 1.109375 -8.234375 C 1.109375 -9.953125 1.4375 -11.460938 2.09375 -12.765625 C 2.757812 -14.078125 3.695312 -15.097656 4.90625 -15.828125 C 6.113281 -16.566406 7.519531 -16.9375 9.125 -16.9375 Z M 9.125 -16.9375 "/></g></g></g><g fill="#257acc" fill-opacity="1"><g transform="translate(390.0116, 92.977397)"><g><path d="M 6.734375 -16.609375 L 6.734375 0 L 2.25 0 L 2.25 -16.609375 Z M 6.78125 -23.203125 L 6.78125 -18.984375 L 2.21875 -18.984375 L 2.21875 -23.203125 Z M 6.78125 -23.203125 "/></g></g></g><g fill="#257acc" fill-opacity="1"><g transform="translate(398.989661, 92.977397)"><g><path d="M 9.140625 0.328125 C 7.515625 0.328125 6.097656 -0.0195312 4.890625 -0.71875 C 3.679688 -1.414062 2.75 -2.398438 2.09375 -3.671875 C 1.4375 -4.953125 1.109375 -6.460938 1.109375 -8.203125 C 1.109375 -9.953125 1.4375 -11.476562 2.09375 -12.78125 C 2.75 -14.09375 3.679688 -15.113281 4.890625 -15.84375 C 6.097656 -16.570312 7.519531 -16.9375 9.15625 -16.9375 C 10.789062 -16.9375 12.207031 -16.578125 13.40625 -15.859375 C 14.613281 -15.148438 15.539062 -14.140625 16.1875 -12.828125 C 16.84375 -11.523438 17.171875 -9.984375 17.171875 -8.203125 C 17.171875 -6.535156 16.851562 -5.0625 16.21875 -3.78125 C 15.582031 -2.5 14.664062 -1.492188 13.46875 -0.765625 C 12.269531 -0.0351562 10.828125 0.328125 9.140625 0.328125 Z M 9.15625 -3.171875 C 9.976562 -3.171875 10.640625 -3.410156 11.140625 -3.890625 C 11.648438 -4.367188 12.019531 -5 12.25 -5.78125 C 12.476562 -6.570312 12.59375 -7.4375 12.59375 -8.375 C 12.59375 -9.25 12.488281 -10.078125 12.28125 -10.859375 C 12.070312 -11.640625 11.710938 -12.269531 11.203125 -12.75 C 10.703125 -13.226562 10.019531 -13.46875 9.15625 -13.46875 C 8.332031 -13.46875 7.664062 -13.238281 7.15625 -12.78125 C 6.644531 -12.332031 6.269531 -11.71875 6.03125 -10.9375 C 5.800781 -10.164062 5.6875 -9.3125 5.6875 -8.375 C 5.6875 -7.5 5.789062 -6.660156 6 -5.859375 C 6.21875 -5.066406 6.578125 -4.421875 7.078125 -3.921875 C 7.585938 -3.421875 8.28125 -3.171875 9.15625 -3.171875 Z M 9.15625 -3.171875 "/></g></g></g><g fill="#257acc" fill-opacity="1"><g transform="translate(417.267006, 92.977397)"><g><path d="M 8.578125 0.328125 C 7.421875 0.328125 6.304688 0.140625 5.234375 -0.234375 C 4.160156 -0.617188 3.253906 -1.222656 2.515625 -2.046875 C 1.773438 -2.867188 1.304688 -3.929688 1.109375 -5.234375 L 5.171875 -5.234375 C 5.304688 -4.648438 5.554688 -4.1875 5.921875 -3.84375 C 6.296875 -3.5 6.71875 -3.253906 7.1875 -3.109375 C 7.664062 -2.960938 8.117188 -2.890625 8.546875 -2.890625 C 9.441406 -2.890625 10.164062 -3.03125 10.71875 -3.3125 C 11.269531 -3.601562 11.546875 -4.039062 11.546875 -4.625 C 11.546875 -5.070312 11.378906 -5.429688 11.046875 -5.703125 C 10.722656 -5.972656 10.1875 -6.175781 9.4375 -6.3125 L 6.515625 -6.921875 C 5.054688 -7.234375 3.878906 -7.757812 2.984375 -8.5 C 2.097656 -9.25 1.644531 -10.304688 1.625 -11.671875 C 1.625 -12.671875 1.890625 -13.566406 2.421875 -14.359375 C 2.953125 -15.148438 3.734375 -15.773438 4.765625 -16.234375 C 5.804688 -16.703125 7.082031 -16.9375 8.59375 -16.9375 C 10.632812 -16.9375 12.269531 -16.484375 13.5 -15.578125 C 14.726562 -14.679688 15.351562 -13.414062 15.375 -11.78125 L 11.453125 -11.78125 C 11.335938 -12.414062 11.019531 -12.90625 10.5 -13.25 C 9.976562 -13.601562 9.328125 -13.78125 8.546875 -13.78125 C 7.734375 -13.78125 7.0625 -13.632812 6.53125 -13.34375 C 6.007812 -13.0625 5.75 -12.625 5.75 -12.03125 C 5.75 -11.59375 5.960938 -11.25 6.390625 -11 C 6.816406 -10.75 7.484375 -10.53125 8.390625 -10.34375 L 11.078125 -9.734375 C 12.015625 -9.503906 12.773438 -9.191406 13.359375 -8.796875 C 13.941406 -8.410156 14.390625 -7.988281 14.703125 -7.53125 C 15.023438 -7.070312 15.25 -6.609375 15.375 -6.140625 C 15.5 -5.671875 15.5625 -5.253906 15.5625 -4.890625 C 15.5625 -3.785156 15.265625 -2.84375 14.671875 -2.0625 C 14.085938 -1.289062 13.269531 -0.695312 12.21875 -0.28125 C 11.175781 0.125 9.960938 0.328125 8.578125 0.328125 Z M 8.578125 0.328125 "/></g></g></g><g fill="#000000" fill-opacity="1"><g transform="translate(319.979263, 140.755738)"><g><path d="M 0.765625 -6.265625 C 0.765625 -7.492188 1.039062 -8.59375 1.59375 -9.5625 C 2.144531 -10.539062 2.894531 -11.304688 3.84375 -11.859375 C 4.800781 -12.410156 5.863281 -12.6875 7.03125 -12.6875 C 8.394531 -12.6875 9.582031 -12.351562 10.59375 -11.6875 C 11.613281 -11.03125 12.359375 -10.097656 12.828125 -8.890625 L 10.875 -8.890625 C 10.519531 -9.648438 10.015625 -10.234375 9.359375 -10.640625 C 8.710938 -11.046875 7.9375 -11.25 7.03125 -11.25 C 6.15625 -11.25 5.367188 -11.046875 4.671875 -10.640625 C 3.972656 -10.234375 3.425781 -9.65625 3.03125 -8.90625 C 2.632812 -8.15625 2.4375 -7.273438 2.4375 -6.265625 C 2.4375 -5.273438 2.632812 -4.40625 3.03125 -3.65625 C 3.425781 -2.90625 3.972656 -2.328125 4.671875 -1.921875 C 5.367188 -1.515625 6.15625 -1.3125 7.03125 -1.3125 C 7.9375 -1.3125 8.710938 -1.507812 9.359375 -1.90625 C 10.015625 -2.3125 10.519531 -2.890625 10.875 -3.640625 L 12.828125 -3.640625 C 12.359375 -2.441406 11.613281 -1.515625 10.59375 -0.859375 C 9.582031 -0.210938 8.394531 0.109375 7.03125 0.109375 C 5.863281 0.109375 4.800781 -0.160156 3.84375 -0.703125 C 2.894531 -1.253906 2.144531 -2.015625 1.59375 -2.984375 C 1.039062 -3.953125 0.765625 -5.046875 0.765625 -6.265625 Z M 0.765625 -6.265625 "/></g></g></g><g fill="#000000" fill-opacity="1"><g transform="translate(333.847784, 140.755738)"><g><path d="M 3.015625 -1.328125 L 7.40625 -1.328125 L 7.40625 0 L 1.390625 0 L 1.390625 -12.53125 L 3.015625 -12.53125 Z M 3.015625 -1.328125 "/></g></g></g><g fill="#000000" fill-opacity="1"><g transform="translate(341.608407, 140.755738)"><g><path d="M 3.015625 -12.53125 L 3.015625 0 L 1.390625 0 L 1.390625 -12.53125 Z M 3.015625 -12.53125 "/></g></g></g><g fill="#000000" fill-opacity="1"><g transform="translate(346.027648, 140.755738)"><g><path d="M 0.765625 -6.265625 C 0.765625 -7.492188 1.039062 -8.59375 1.59375 -9.5625 C 2.144531 -10.539062 2.894531 -11.304688 3.84375 -11.859375 C 4.800781 -12.410156 5.863281 -12.6875 7.03125 -12.6875 C 8.394531 -12.6875 9.582031 -12.351562 10.59375 -11.6875 C 11.613281 -11.03125 12.359375 -10.097656 12.828125 -8.890625 L 10.875 -8.890625 C 10.519531 -9.648438 10.015625 -10.234375 9.359375 -10.640625 C 8.710938 -11.046875 7.9375 -11.25 7.03125 -11.25 C 6.15625 -11.25 5.367188 -11.046875 4.671875 -10.640625 C 3.972656 -10.234375 3.425781 -9.65625 3.03125 -8.90625 C 2.632812 -8.15625 2.4375 -7.273438 2.4375 -6.265625 C 2.4375 -5.273438 2.632812 -4.40625 3.03125 -3.65625 C 3.425781 -2.90625 3.972656 -2.328125 4.671875 -1.921875 C 5.367188 -1.515625 6.15625 -1.3125 7.03125 -1.3125 C 7.9375 -1.3125 8.710938 -1.507812 9.359375 -1.90625 C 10.015625 -2.3125 10.519531 -2.890625 10.875 -3.640625 L 12.828125 -3.640625 C 12.359375 -2.441406 11.613281 -1.515625 10.59375 -0.859375 C 9.582031 -0.210938 8.394531 0.109375 7.03125 0.109375 C 5.863281 0.109375 4.800781 -0.160156 3.84375 -0.703125 C 2.894531 -1.253906 2.144531 -2.015625 1.59375 -2.984375 C 1.039062 -3.953125 0.765625 -5.046875 0.765625 -6.265625 Z M 0.765625 -6.265625 "/></g></g></g><g fill="#000000" fill-opacity="1"><g transform="translate(359.896168, 140.755738)"><g/></g></g><g fill="#000000" fill-opacity="1"><g transform="translate(364.692661, 140.755738)"><g><path d="M 8.78125 -2.78125 L 3.328125 -2.78125 L 2.3125 0 L 0.59375 0 L 5.125 -12.453125 L 7 -12.453125 L 11.515625 0 L 9.796875 0 Z M 8.3125 -4.109375 L 6.0625 -10.4375 L 3.796875 -4.109375 Z M 8.3125 -4.109375 "/></g></g></g><g fill="#000000" fill-opacity="1"><g transform="translate(376.800672, 140.755738)"><g><path d="M 11.421875 2.375 L 8.9375 -0.125 C 8.320312 0.0390625 7.695312 0.125 7.0625 0.125 C 5.894531 0.125 4.832031 -0.144531 3.875 -0.6875 C 2.914062 -1.238281 2.15625 -2 1.59375 -2.96875 C 1.039062 -3.945312 0.765625 -5.046875 0.765625 -6.265625 C 0.765625 -7.492188 1.039062 -8.59375 1.59375 -9.5625 C 2.15625 -10.539062 2.914062 -11.300781 3.875 -11.84375 C 4.832031 -12.394531 5.894531 -12.671875 7.0625 -12.671875 C 8.238281 -12.671875 9.304688 -12.394531 10.265625 -11.84375 C 11.222656 -11.300781 11.972656 -10.546875 12.515625 -9.578125 C 13.066406 -8.609375 13.34375 -7.503906 13.34375 -6.265625 C 13.34375 -5.066406 13.078125 -3.988281 12.546875 -3.03125 C 12.023438 -2.070312 11.304688 -1.316406 10.390625 -0.765625 L 13.546875 2.375 Z M 2.4375 -6.265625 C 2.4375 -5.273438 2.632812 -4.398438 3.03125 -3.640625 C 3.4375 -2.890625 3.988281 -2.3125 4.6875 -1.90625 C 5.394531 -1.5 6.1875 -1.296875 7.0625 -1.296875 C 7.9375 -1.296875 8.722656 -1.5 9.421875 -1.90625 C 10.117188 -2.3125 10.664062 -2.890625 11.0625 -3.640625 C 11.46875 -4.398438 11.671875 -5.273438 11.671875 -6.265625 C 11.671875 -7.273438 11.46875 -8.15625 11.0625 -8.90625 C 10.664062 -9.65625 10.117188 -10.234375 9.421875 -10.640625 C 8.734375 -11.046875 7.945312 -11.25 7.0625 -11.25 C 6.175781 -11.25 5.382812 -11.046875 4.6875 -10.640625 C 3.988281 -10.234375 3.4375 -9.65625 3.03125 -8.90625 C 2.632812 -8.15625 2.4375 -7.273438 2.4375 -6.265625 Z M 2.4375 -6.265625 "/></g></g></g><g fill="#000000" fill-opacity="1"><g transform="translate(390.956626, 140.755738)"><g><path d="M 2.984375 -12.53125 L 2.984375 -4.59375 C 2.984375 -3.476562 3.253906 -2.648438 3.796875 -2.109375 C 4.347656 -1.578125 5.109375 -1.3125 6.078125 -1.3125 C 7.035156 -1.3125 7.785156 -1.578125 8.328125 -2.109375 C 8.867188 -2.648438 9.140625 -3.476562 9.140625 -4.59375 L 9.140625 -12.53125 L 10.78125 -12.53125 L 10.78125 -4.625 C 10.78125 -3.570312 10.566406 -2.691406 10.140625 -1.984375 C 9.722656 -1.273438 9.160156 -0.742188 8.453125 -0.390625 C 7.742188 -0.046875 6.945312 0.125 6.0625 0.125 C 5.164062 0.125 4.363281 -0.046875 3.65625 -0.390625 C 2.945312 -0.742188 2.382812 -1.273438 1.96875 -1.984375 C 1.550781 -2.691406 1.34375 -3.570312 1.34375 -4.625 L 1.34375 -12.53125 Z M 2.984375 -12.53125 "/></g></g></g><g fill="#000000" fill-opacity="1"><g transform="translate(403.082603, 140.755738)"><g><path d="M 3.015625 -12.53125 L 3.015625 0 L 1.390625 0 L 1.390625 -12.53125 Z M 3.953125 -15.234375 L 0.140625 -13.1875 L 0.140625 -14.421875 L 3.953125 -16.65625 Z M 3.953125 -15.234375 "/></g></g></g></svg>