<svg xmlns="http://www.w3.org/2000/svg" xmlns:xlink="http://www.w3.org/1999/xlink" width="500" zoomAndPan="magnify" viewBox="0 0 375 374.999991" height="500" preserveAspectRatio="xMidYMid meet" version="1.0"><defs><clipPath id="4112f8d950"><path d="M 19.589844 19.589844 L 355.589844 19.589844 L 355.589844 355.589844 L 19.589844 355.589844 Z M 19.589844 19.589844 " clip-rule="nonzero"/></clipPath></defs><g clip-path="url(#4112f8d950)"><path fill="#98ccfd" d="M 327.519531 19.589844 L 47.828125 19.589844 C 32.363281 19.589844 19.925781 32.195312 19.925781 47.492188 L 19.925781 327.6875 C 19.925781 343.152344 32.53125 355.589844 47.828125 355.589844 L 327.351562 355.589844 C 342.816406 355.589844 355.253906 342.984375 355.253906 327.6875 L 355.253906 47.492188 C 355.421875 32.195312 342.984375 19.589844 327.519531 19.589844 Z M 119.261719 296.761719 L 69.679688 296.761719 L 69.679688 147.835938 L 119.261719 147.835938 Z M 94.386719 129.851562 C 78.753906 129.851562 66.148438 117.246094 66.148438 101.613281 C 66.148438 85.984375 78.753906 73.375 94.386719 73.375 C 110.019531 73.375 122.625 85.984375 122.625 101.613281 C 122.625 117.246094 110.019531 129.851562 94.386719 129.851562 Z M 305.835938 296.761719 L 256.082031 296.761719 L 254.90625 208.347656 C 254.90625 208.347656 256.082031 184.816406 230.367188 184.984375 C 204.648438 185.152344 201.121094 208.347656 201.121094 208.347656 L 201.121094 296.761719 L 151.03125 296.761719 L 151.03125 147.835938 L 199.101562 147.835938 L 199.101562 168.34375 C 199.101562 168.34375 201.121094 161.621094 212.214844 153.71875 C 223.308594 145.820312 241.628906 144.140625 249.527344 144.476562 C 257.429688 144.8125 268.1875 143.46875 286.171875 155.90625 C 305.5 169.183594 306.003906 203.976562 306.003906 203.976562 Z M 305.835938 296.761719 " fill-opacity="1" fill-rule="nonzero"/></g></svg>