<svg xmlns="http://www.w3.org/2000/svg" xmlns:xlink="http://www.w3.org/1999/xlink" width="500" zoomAndPan="magnify" viewBox="0 0 375 374.999991" height="500" preserveAspectRatio="xMidYMid meet" version="1.0"><defs><clipPath id="8786ca5ee9"><path d="M 30 24.265625 L 344 24.265625 L 344 337 L 30 337 Z M 30 24.265625 " clip-rule="nonzero"/></clipPath><clipPath id="8d4eb96316"><path d="M 30 24.265625 L 344 24.265625 L 344 337 L 30 337 Z M 30 24.265625 " clip-rule="nonzero"/></clipPath></defs><g clip-path="url(#8786ca5ee9)"><path fill="#98ccfd" d="M 187.226562 24.265625 C 184.667969 24.265625 182.113281 24.328125 179.554688 24.453125 C 177 24.578125 174.449219 24.765625 171.902344 25.015625 C 169.355469 25.265625 166.820312 25.582031 164.289062 25.957031 C 161.757812 26.332031 159.238281 26.769531 156.726562 27.269531 C 154.21875 27.765625 151.722656 28.328125 149.242188 28.949219 C 146.757812 29.570312 144.292969 30.253906 141.84375 30.996094 C 139.398438 31.738281 136.96875 32.539062 134.558594 33.402344 C 132.148438 34.265625 129.761719 35.183594 127.398438 36.164062 C 125.035156 37.144531 122.699219 38.179688 120.382812 39.273438 C 118.070312 40.367188 115.785156 41.519531 113.53125 42.722656 C 111.273438 43.929688 109.046875 45.191406 106.855469 46.507812 C 104.660156 47.820312 102.5 49.191406 100.371094 50.613281 C 98.242188 52.03125 96.152344 53.507812 94.097656 55.03125 C 92.042969 56.554688 90.027344 58.128906 88.046875 59.75 C 86.070312 61.375 84.132812 63.042969 82.238281 64.761719 C 80.34375 66.480469 78.488281 68.246094 76.679688 70.054688 C 74.871094 71.863281 73.105469 73.714844 71.390625 75.613281 C 69.671875 77.507812 68 79.445312 66.378906 81.421875 C 64.753906 83.398438 63.179688 85.417969 61.65625 87.472656 C 60.132812 89.527344 58.660156 91.617188 57.238281 93.746094 C 55.816406 95.871094 54.449219 98.035156 53.132812 100.226562 C 51.816406 102.421875 50.554688 104.648438 49.351562 106.90625 C 48.144531 109.160156 46.992188 111.445312 45.898438 113.757812 C 44.804688 116.070312 43.769531 118.410156 42.789062 120.773438 C 41.8125 123.136719 40.890625 125.523438 40.027344 127.933594 C 39.167969 130.34375 38.363281 132.769531 37.621094 135.21875 C 36.878906 137.667969 36.195312 140.132812 35.574219 142.613281 C 34.953125 145.097656 34.394531 147.59375 33.894531 150.101562 C 33.394531 152.613281 32.957031 155.132812 32.582031 157.664062 C 32.207031 160.195312 31.894531 162.730469 31.644531 165.277344 C 31.390625 167.824219 31.203125 170.375 31.078125 172.929688 C 30.953125 175.488281 30.890625 178.042969 30.890625 180.601562 C 30.890625 183.160156 30.953125 185.71875 31.078125 188.273438 C 31.203125 190.828125 31.390625 193.378906 31.644531 195.925781 C 31.894531 198.472656 32.207031 201.011719 32.582031 203.542969 C 32.957031 206.074219 33.394531 208.59375 33.894531 211.101562 C 34.394531 213.613281 34.953125 216.109375 35.574219 218.589844 C 36.195312 221.070312 36.878906 223.535156 37.621094 225.984375 C 38.363281 228.433594 39.167969 230.863281 40.027344 233.269531 C 40.890625 235.679688 41.8125 238.066406 42.789062 240.429688 C 43.769531 242.792969 44.804688 245.132812 45.898438 247.445312 C 46.992188 249.757812 48.144531 252.042969 49.351562 254.300781 C 50.554688 256.554688 51.816406 258.78125 53.132812 260.976562 C 54.449219 263.171875 55.816406 265.332031 57.238281 267.460938 C 58.660156 269.585938 60.132812 271.679688 61.65625 273.734375 C 63.179688 275.789062 64.753906 277.804688 66.378906 279.78125 C 68 281.761719 69.671875 283.695312 71.390625 285.59375 C 73.105469 287.488281 74.871094 289.339844 76.679688 291.152344 C 78.488281 292.960938 80.34375 294.722656 82.238281 296.441406 C 84.132812 298.160156 86.070312 299.832031 88.046875 301.453125 C 90.027344 303.078125 92.042969 304.652344 94.097656 306.175781 C 96.152344 307.699219 98.242188 309.171875 100.371094 310.59375 C 102.5 312.015625 104.660156 313.382812 106.855469 314.699219 C 109.046875 316.015625 111.273438 317.273438 113.53125 318.480469 C 115.785156 319.6875 118.070312 320.835938 120.382812 321.929688 C 122.699219 323.023438 125.035156 324.0625 127.398438 325.039062 C 129.761719 326.019531 132.148438 326.941406 134.558594 327.800781 C 136.96875 328.664062 139.398438 329.464844 141.84375 330.210938 C 144.292969 330.953125 146.757812 331.632812 149.242188 332.253906 C 151.722656 332.878906 154.21875 333.4375 156.726562 333.9375 C 159.238281 334.4375 161.757812 334.875 164.289062 335.25 C 166.820312 335.625 169.355469 335.9375 171.902344 336.1875 C 174.449219 336.4375 177 336.628906 179.554688 336.753906 C 182.113281 336.878906 184.667969 336.941406 187.226562 336.941406 C 189.785156 336.941406 192.34375 336.878906 194.898438 336.753906 C 197.453125 336.628906 200.003906 336.4375 202.550781 336.1875 C 205.097656 335.9375 207.636719 335.625 210.167969 335.25 C 212.699219 334.875 215.21875 334.4375 217.726562 333.9375 C 220.238281 333.4375 222.730469 332.878906 225.214844 332.253906 C 227.695312 331.632812 230.160156 330.953125 232.609375 330.210938 C 235.058594 329.464844 237.488281 328.664062 239.894531 327.800781 C 242.304688 326.941406 244.691406 326.019531 247.054688 325.039062 C 249.417969 324.0625 251.757812 323.023438 254.070312 321.929688 C 256.382812 320.835938 258.667969 319.6875 260.925781 318.480469 C 263.179688 317.273438 265.40625 316.015625 267.601562 314.699219 C 269.796875 313.382812 271.957031 312.015625 274.082031 310.59375 C 276.210938 309.171875 278.300781 307.699219 280.359375 306.175781 C 282.414062 304.652344 284.429688 303.078125 286.40625 301.453125 C 288.382812 299.832031 290.320312 298.160156 292.21875 296.441406 C 294.113281 294.722656 295.964844 292.960938 297.773438 291.152344 C 299.582031 289.339844 301.347656 287.488281 303.066406 285.59375 C 304.785156 283.695312 306.453125 281.761719 308.078125 279.78125 C 309.699219 277.804688 311.273438 275.789062 312.796875 273.734375 C 314.324219 271.679688 315.796875 269.585938 317.21875 267.460938 C 318.636719 265.332031 320.007812 263.171875 321.324219 260.976562 C 322.636719 258.78125 323.898438 256.554688 325.105469 254.300781 C 326.3125 252.042969 327.460938 249.757812 328.554688 247.445312 C 329.648438 245.132812 330.683594 242.792969 331.664062 240.429688 C 332.644531 238.066406 333.5625 235.679688 334.425781 233.269531 C 335.289062 230.863281 336.089844 228.433594 336.832031 225.984375 C 337.574219 223.535156 338.257812 221.070312 338.878906 218.589844 C 339.5 216.109375 340.0625 213.613281 340.5625 211.101562 C 341.058594 208.59375 341.496094 206.074219 341.871094 203.542969 C 342.25 201.011719 342.5625 198.472656 342.8125 195.925781 C 343.0625 193.378906 343.25 190.828125 343.375 188.273438 C 343.503906 185.71875 343.566406 183.160156 343.566406 180.601562 C 343.566406 178.042969 343.503906 175.488281 343.375 172.929688 C 343.25 170.375 343.0625 167.824219 342.8125 165.277344 C 342.5625 162.730469 342.25 160.195312 341.871094 157.664062 C 341.496094 155.132812 341.058594 152.613281 340.5625 150.101562 C 340.0625 147.59375 339.5 145.097656 338.878906 142.613281 C 338.257812 140.132812 337.574219 137.667969 336.832031 135.21875 C 336.089844 132.769531 335.289062 130.34375 334.425781 127.933594 C 333.5625 125.523438 332.644531 123.136719 331.664062 120.773438 C 330.683594 118.410156 329.648438 116.070312 328.554688 113.757812 C 327.460938 111.445312 326.3125 109.160156 325.105469 106.90625 C 323.898438 104.648438 322.636719 102.421875 321.324219 100.226562 C 320.007812 98.035156 318.636719 95.871094 317.21875 93.746094 C 315.796875 91.617188 314.324219 89.527344 312.796875 87.472656 C 311.273438 85.417969 309.699219 83.398438 308.078125 81.421875 C 306.453125 79.445312 304.785156 77.507812 303.066406 75.613281 C 301.347656 73.714844 299.582031 71.863281 297.773438 70.054688 C 295.964844 68.246094 294.113281 66.480469 292.21875 64.761719 C 290.320312 63.042969 288.382812 61.375 286.40625 59.75 C 284.429688 58.128906 282.414062 56.554688 280.359375 55.03125 C 278.300781 53.507812 276.210938 52.03125 274.082031 50.613281 C 271.957031 49.191406 269.796875 47.820312 267.601562 46.507812 C 265.40625 45.191406 263.179688 43.929688 260.925781 42.722656 C 258.667969 41.519531 256.382812 40.367188 254.070312 39.273438 C 251.757812 38.179688 249.417969 37.144531 247.054688 36.164062 C 244.691406 35.183594 242.304688 34.265625 239.894531 33.402344 C 237.488281 32.539062 235.058594 31.738281 232.609375 30.996094 C 230.160156 30.253906 227.695312 29.570312 225.214844 28.949219 C 222.730469 28.328125 220.238281 27.765625 217.726562 27.269531 C 215.21875 26.769531 212.699219 26.332031 210.167969 25.957031 C 207.636719 25.582031 205.097656 25.265625 202.550781 25.015625 C 200.003906 24.765625 197.453125 24.578125 194.898438 24.453125 C 192.34375 24.328125 189.785156 24.265625 187.226562 24.265625 Z M 187.226562 24.265625 " fill-opacity="1" fill-rule="nonzero"/></g><path fill="#ffffff" d="M 342.675781 197.117188 C 342.699219 196.894531 342.742188 196.679688 342.765625 196.457031 C 342.742188 196.671875 342.699219 196.894531 342.675781 197.117188 Z M 31.6875 196.402344 C 31.722656 196.695312 31.769531 196.992188 31.804688 197.289062 C 31.777344 196.992188 31.710938 196.695312 31.6875 196.402344 Z M 208.390625 222.039062 L 248.847656 222.039062 L 255.203125 180.941406 L 208.382812 180.941406 L 208.382812 158.476562 C 208.382812 141.402344 213.960938 126.261719 229.933594 126.261719 L 255.597656 126.261719 L 255.597656 90.386719 C 251.09375 89.785156 241.566406 88.445312 223.546875 88.445312 C 185.917969 88.445312 163.859375 108.316406 163.859375 153.589844 L 163.859375 180.929688 L 125.179688 180.929688 L 125.179688 222.03125 L 163.859375 222.03125 L 163.859375 332.308594 C 171.503906 333.460938 179.261719 334.242188 187.226562 334.242188 C 194.425781 334.242188 201.453125 333.582031 208.390625 332.644531 Z M 208.390625 222.039062 " fill-opacity="1" fill-rule="nonzero"/><g clip-path="url(#8d4eb96316)"><path fill="#0a57a2" d="M 187.226562 32.492188 C 268.894531 32.492188 335.335938 98.9375 335.335938 180.601562 C 335.335938 262.269531 268.894531 328.710938 187.226562 328.710938 C 105.5625 328.710938 39.117188 262.269531 39.117188 180.601562 C 39.117188 98.9375 105.5625 32.492188 187.226562 32.492188 M 187.226562 24.265625 C 100.886719 24.265625 30.890625 94.261719 30.890625 180.601562 C 30.890625 266.941406 100.886719 336.941406 187.226562 336.941406 C 273.566406 336.941406 343.566406 266.941406 343.566406 180.601562 C 343.566406 94.261719 273.566406 24.265625 187.226562 24.265625 Z M 187.226562 24.265625 " fill-opacity="1" fill-rule="nonzero"/></g></svg>