<svg xmlns="http://www.w3.org/2000/svg" xmlns:xlink="http://www.w3.org/1999/xlink" width="500" zoomAndPan="magnify" viewBox="0 0 375 374.999991" height="500" preserveAspectRatio="xMidYMid meet" version="1.0"><defs><clipPath id="436c9e66ec"><path d="M 14.550781 14.550781 L 360.300781 14.550781 L 360.300781 360.300781 L 14.550781 360.300781 Z M 14.550781 14.550781 " clip-rule="nonzero"/></clipPath></defs><path fill="#98ccfd" d="M 250.308594 31.839844 L 124.542969 31.839844 C 123.027344 31.839844 121.511719 31.878906 119.996094 31.953125 C 118.480469 32.03125 116.96875 32.144531 115.460938 32.292969 C 113.949219 32.441406 112.445312 32.628906 110.945312 32.851562 C 109.445312 33.074219 107.949219 33.335938 106.464844 33.632812 C 104.976562 33.929688 103.496094 34.261719 102.023438 34.632812 C 100.554688 35 99.09375 35.40625 97.640625 35.847656 C 96.191406 36.289062 94.75 36.765625 93.324219 37.277344 C 91.894531 37.789062 90.480469 38.335938 89.078125 38.914062 C 87.675781 39.496094 86.292969 40.113281 84.921875 40.761719 C 83.550781 41.410156 82.195312 42.09375 80.859375 42.808594 C 79.519531 43.523438 78.199219 44.269531 76.898438 45.050781 C 75.597656 45.832031 74.316406 46.640625 73.058594 47.484375 C 71.796875 48.328125 70.554688 49.203125 69.339844 50.105469 C 68.121094 51.007812 66.925781 51.941406 65.753906 52.90625 C 64.578125 53.867188 63.433594 54.859375 62.308594 55.875 C 61.183594 56.894531 60.085938 57.941406 59.011719 59.011719 C 57.941406 60.085938 56.894531 61.183594 55.875 62.308594 C 54.859375 63.433594 53.867188 64.578125 52.90625 65.753906 C 51.941406 66.925781 51.007812 68.121094 50.105469 69.339844 C 49.203125 70.554688 48.328125 71.796875 47.484375 73.058594 C 46.640625 74.316406 45.832031 75.597656 45.050781 76.898438 C 44.269531 78.199219 43.523438 79.519531 42.808594 80.859375 C 42.09375 82.195312 41.410156 83.550781 40.761719 84.921875 C 40.113281 86.292969 39.496094 87.675781 38.914062 89.078125 C 38.335938 90.480469 37.789062 91.894531 37.277344 93.324219 C 36.765625 94.75 36.289062 96.191406 35.847656 97.640625 C 35.40625 99.09375 35 100.554688 34.632812 102.023438 C 34.261719 103.496094 33.929688 104.976562 33.632812 106.464844 C 33.335938 107.949219 33.074219 109.445312 32.851562 110.945312 C 32.628906 112.445312 32.441406 113.949219 32.292969 115.460938 C 32.144531 116.96875 32.03125 118.480469 31.953125 119.996094 C 31.878906 121.511719 31.839844 123.027344 31.839844 124.542969 L 31.839844 250.308594 C 31.839844 251.828125 31.878906 253.34375 31.953125 254.859375 C 32.03125 256.375 32.144531 257.886719 32.292969 259.394531 C 32.441406 260.90625 32.628906 262.410156 32.851562 263.910156 C 33.074219 265.410156 33.335938 266.902344 33.632812 268.390625 C 33.929688 269.878906 34.261719 271.359375 34.632812 272.828125 C 35 274.300781 35.40625 275.761719 35.847656 277.214844 C 36.289062 278.664062 36.765625 280.105469 37.277344 281.53125 C 37.789062 282.960938 38.335938 284.375 38.914062 285.777344 C 39.496094 287.175781 40.113281 288.5625 40.761719 289.933594 C 41.410156 291.304688 42.09375 292.660156 42.808594 293.996094 C 43.523438 295.335938 44.269531 296.652344 45.050781 297.953125 C 45.832031 299.253906 46.640625 300.535156 47.484375 301.796875 C 48.328125 303.058594 49.203125 304.296875 50.105469 305.515625 C 51.007812 306.734375 51.941406 307.929688 52.90625 309.101562 C 53.867188 310.273438 54.859375 311.421875 55.875 312.546875 C 56.894531 313.671875 57.941406 314.769531 59.011719 315.839844 C 60.085938 316.914062 61.183594 317.960938 62.308594 318.976562 C 63.433594 319.996094 64.578125 320.988281 65.753906 321.949219 C 66.925781 322.914062 68.121094 323.84375 69.339844 324.75 C 70.554688 325.652344 71.796875 326.527344 73.058594 327.367188 C 74.316406 328.210938 75.597656 329.023438 76.898438 329.804688 C 78.199219 330.582031 79.519531 331.332031 80.859375 332.046875 C 82.195312 332.761719 83.550781 333.445312 84.921875 334.09375 C 86.292969 334.742188 87.675781 335.359375 89.078125 335.9375 C 90.480469 336.519531 91.894531 337.066406 93.324219 337.578125 C 94.75 338.089844 96.191406 338.566406 97.640625 339.007812 C 99.09375 339.449219 100.554688 339.851562 102.023438 340.222656 C 103.496094 340.589844 104.976562 340.925781 106.464844 341.222656 C 107.949219 341.519531 109.445312 341.777344 110.945312 342.003906 C 112.445312 342.226562 113.949219 342.410156 115.460938 342.5625 C 116.96875 342.710938 118.480469 342.824219 119.996094 342.898438 C 121.511719 342.976562 123.027344 343.011719 124.542969 343.015625 L 250.308594 343.015625 C 251.828125 343.011719 253.34375 342.976562 254.859375 342.898438 C 256.375 342.824219 257.886719 342.710938 259.394531 342.5625 C 260.90625 342.410156 262.410156 342.226562 263.910156 342.003906 C 265.410156 341.777344 266.902344 341.519531 268.390625 341.222656 C 269.878906 340.925781 271.359375 340.589844 272.828125 340.222656 C 274.300781 339.851562 275.761719 339.449219 277.214844 339.007812 C 278.664062 338.566406 280.105469 338.089844 281.53125 337.578125 C 282.960938 337.066406 284.375 336.519531 285.777344 335.9375 C 287.175781 335.359375 288.5625 334.742188 289.933594 334.09375 C 291.304688 333.445312 292.660156 332.761719 293.996094 332.046875 C 295.335938 331.332031 296.652344 330.582031 297.953125 329.804688 C 299.253906 329.023438 300.535156 328.210938 301.796875 327.371094 C 303.058594 326.527344 304.296875 325.652344 305.515625 324.75 C 306.734375 323.84375 307.929688 322.914062 309.101562 321.949219 C 310.273438 320.988281 311.421875 319.996094 312.546875 318.976562 C 313.671875 317.960938 314.769531 316.914062 315.839844 315.839844 C 316.914062 314.769531 317.960938 313.671875 318.976562 312.546875 C 319.996094 311.421875 320.988281 310.273438 321.949219 309.101562 C 322.914062 307.929688 323.84375 306.734375 324.75 305.515625 C 325.652344 304.296875 326.527344 303.058594 327.371094 301.796875 C 328.210938 300.535156 329.023438 299.253906 329.804688 297.953125 C 330.582031 296.652344 331.332031 295.335938 332.046875 293.996094 C 332.761719 292.660156 333.445312 291.304688 334.09375 289.933594 C 334.742188 288.5625 335.359375 287.175781 335.9375 285.777344 C 336.519531 284.375 337.066406 282.960938 337.578125 281.53125 C 338.089844 280.105469 338.566406 278.664062 339.007812 277.214844 C 339.449219 275.761719 339.851562 274.300781 340.222656 272.828125 C 340.589844 271.359375 340.925781 269.878906 341.222656 268.390625 C 341.519531 266.902344 341.777344 265.410156 342.003906 263.910156 C 342.226562 262.410156 342.414062 260.90625 342.5625 259.394531 C 342.710938 257.886719 342.824219 256.375 342.898438 254.859375 C 342.976562 253.34375 343.011719 251.828125 343.015625 250.308594 L 343.015625 124.542969 C 343.011719 123.027344 342.976562 121.511719 342.898438 119.996094 C 342.824219 118.480469 342.710938 116.96875 342.5625 115.460938 C 342.410156 113.949219 342.226562 112.445312 342.003906 110.945312 C 341.777344 109.445312 341.519531 107.949219 341.222656 106.464844 C 340.925781 104.976562 340.589844 103.496094 340.222656 102.023438 C 339.851562 100.554688 339.449219 99.09375 339.007812 97.640625 C 338.566406 96.191406 338.089844 94.75 337.578125 93.324219 C 337.066406 91.894531 336.519531 90.480469 335.9375 89.078125 C 335.359375 87.675781 334.742188 86.292969 334.09375 84.921875 C 333.445312 83.550781 332.761719 82.195312 332.046875 80.859375 C 331.332031 79.519531 330.582031 78.199219 329.804688 76.898438 C 329.023438 75.597656 328.210938 74.316406 327.371094 73.058594 C 326.527344 71.796875 325.652344 70.554688 324.75 69.339844 C 323.84375 68.121094 322.914062 66.925781 321.949219 65.753906 C 320.988281 64.578125 319.996094 63.433594 318.976562 62.308594 C 317.960938 61.183594 316.914062 60.085938 315.839844 59.011719 C 314.769531 57.941406 313.671875 56.894531 312.546875 55.875 C 311.421875 54.859375 310.273438 53.867188 309.101562 52.90625 C 307.929688 51.941406 306.734375 51.007812 305.515625 50.105469 C 304.296875 49.203125 303.058594 48.328125 301.796875 47.484375 C 300.535156 46.640625 299.253906 45.832031 297.953125 45.050781 C 296.652344 44.269531 295.335938 43.523438 293.996094 42.808594 C 292.660156 42.09375 291.304688 41.410156 289.933594 40.761719 C 288.5625 40.113281 287.175781 39.496094 285.777344 38.914062 C 284.375 38.335938 282.960938 37.789062 281.53125 37.277344 C 280.105469 36.765625 278.664062 36.289062 277.214844 35.847656 C 275.761719 35.40625 274.300781 35 272.828125 34.632812 C 271.359375 34.261719 269.878906 33.929688 268.390625 33.632812 C 266.902344 33.335938 265.410156 33.074219 263.910156 32.851562 C 262.410156 32.628906 260.90625 32.441406 259.394531 32.292969 C 257.886719 32.144531 256.375 32.03125 254.859375 31.953125 C 253.34375 31.878906 251.828125 31.839844 250.308594 31.839844 Z M 250.308594 31.839844 " fill-opacity="1" fill-rule="nonzero"/><path fill="#0a57a2" d="M 256.144531 187.425781 C 256.144531 188.550781 256.117188 189.675781 256.0625 190.800781 C 256.007812 191.921875 255.925781 193.042969 255.8125 194.164062 C 255.703125 195.28125 255.566406 196.398438 255.402344 197.511719 C 255.234375 198.621094 255.042969 199.730469 254.824219 200.832031 C 254.605469 201.9375 254.359375 203.035156 254.085938 204.125 C 253.8125 205.214844 253.511719 206.296875 253.1875 207.375 C 252.859375 208.449219 252.507812 209.519531 252.128906 210.578125 C 251.75 211.636719 251.34375 212.683594 250.914062 213.722656 C 250.484375 214.761719 250.027344 215.792969 249.546875 216.808594 C 249.066406 217.824219 248.5625 218.828125 248.03125 219.820312 C 247.5 220.8125 246.945312 221.789062 246.367188 222.753906 C 245.789062 223.71875 245.1875 224.667969 244.5625 225.605469 C 243.9375 226.539062 243.292969 227.460938 242.621094 228.363281 C 241.953125 229.265625 241.261719 230.152344 240.546875 231.019531 C 239.832031 231.890625 239.097656 232.742188 238.34375 233.574219 C 237.589844 234.410156 236.8125 235.222656 236.019531 236.019531 C 235.222656 236.8125 234.410156 237.589844 233.574219 238.34375 C 232.742188 239.097656 231.890625 239.832031 231.019531 240.546875 C 230.152344 241.261719 229.265625 241.953125 228.363281 242.621094 C 227.460938 243.292969 226.539062 243.9375 225.605469 244.5625 C 224.667969 245.1875 223.71875 245.789062 222.753906 246.367188 C 221.789062 246.945312 220.8125 247.5 219.820312 248.03125 C 218.828125 248.5625 217.824219 249.066406 216.808594 249.546875 C 215.792969 250.027344 214.761719 250.484375 213.722656 250.914062 C 212.683594 251.34375 211.636719 251.75 210.578125 252.128906 C 209.519531 252.507812 208.449219 252.859375 207.375 253.1875 C 206.296875 253.511719 205.214844 253.8125 204.125 254.085938 C 203.035156 254.359375 201.9375 254.605469 200.832031 254.824219 C 199.730469 255.042969 198.621094 255.234375 197.511719 255.402344 C 196.398438 255.566406 195.28125 255.703125 194.164062 255.8125 C 193.042969 255.925781 191.921875 256.007812 190.800781 256.0625 C 189.675781 256.117188 188.550781 256.144531 187.425781 256.144531 C 186.300781 256.144531 185.179688 256.117188 184.054688 256.0625 C 182.933594 256.007812 181.8125 255.925781 180.691406 255.8125 C 179.574219 255.703125 178.457031 255.566406 177.34375 255.402344 C 176.230469 255.234375 175.125 255.042969 174.019531 254.824219 C 172.917969 254.605469 171.820312 254.359375 170.730469 254.085938 C 169.640625 253.8125 168.554688 253.511719 167.480469 253.1875 C 166.402344 252.859375 165.335938 252.507812 164.277344 252.128906 C 163.21875 251.75 162.167969 251.34375 161.128906 250.914062 C 160.089844 250.484375 159.0625 250.027344 158.046875 249.546875 C 157.03125 249.066406 156.027344 248.5625 155.035156 248.03125 C 154.042969 247.5 153.0625 246.945312 152.097656 246.367188 C 151.132812 245.789062 150.183594 245.1875 149.25 244.5625 C 148.316406 243.9375 147.394531 243.292969 146.492188 242.621094 C 145.589844 241.953125 144.703125 241.261719 143.832031 240.546875 C 142.964844 239.832031 142.113281 239.097656 141.277344 238.34375 C 140.445312 237.589844 139.632812 236.8125 138.835938 236.019531 C 138.042969 235.222656 137.265625 234.410156 136.511719 233.574219 C 135.753906 232.742188 135.019531 231.890625 134.308594 231.019531 C 133.59375 230.152344 132.902344 229.265625 132.234375 228.363281 C 131.5625 227.460938 130.914062 226.539062 130.289062 225.605469 C 129.664062 224.667969 129.0625 223.71875 128.484375 222.753906 C 127.90625 221.789062 127.355469 220.8125 126.824219 219.820312 C 126.292969 218.828125 125.789062 217.824219 125.308594 216.808594 C 124.828125 215.792969 124.371094 214.761719 123.941406 213.722656 C 123.511719 212.683594 123.105469 211.636719 122.726562 210.578125 C 122.347656 209.519531 121.996094 208.449219 121.667969 207.375 C 121.34375 206.296875 121.042969 205.214844 120.769531 204.125 C 120.496094 203.035156 120.25 201.9375 120.03125 200.832031 C 119.808594 199.730469 119.617188 198.621094 119.453125 197.511719 C 119.289062 196.398438 119.152344 195.28125 119.039062 194.164062 C 118.929688 193.042969 118.847656 191.921875 118.792969 190.800781 C 118.738281 189.675781 118.710938 188.550781 118.710938 187.425781 C 118.710938 186.300781 118.738281 185.179688 118.792969 184.054688 C 118.847656 182.933594 118.929688 181.8125 119.039062 180.691406 C 119.152344 179.574219 119.289062 178.457031 119.453125 177.34375 C 119.617188 176.230469 119.808594 175.125 120.03125 174.019531 C 120.25 172.917969 120.496094 171.820312 120.769531 170.730469 C 121.042969 169.640625 121.34375 168.554688 121.667969 167.480469 C 121.996094 166.402344 122.347656 165.335938 122.726562 164.277344 C 123.105469 163.21875 123.511719 162.167969 123.941406 161.128906 C 124.371094 160.089844 124.828125 159.0625 125.308594 158.046875 C 125.789062 157.03125 126.292969 156.027344 126.824219 155.035156 C 127.355469 154.042969 127.90625 153.0625 128.484375 152.097656 C 129.0625 151.132812 129.664062 150.183594 130.289062 149.25 C 130.914062 148.316406 131.5625 147.394531 132.234375 146.492188 C 132.902344 145.589844 133.59375 144.703125 134.308594 143.832031 C 135.019531 142.964844 135.753906 142.113281 136.511719 141.277344 C 137.265625 140.445312 138.042969 139.632812 138.835938 138.835938 C 139.632812 138.042969 140.445312 137.265625 141.277344 136.511719 C 142.113281 135.753906 142.964844 135.019531 143.832031 134.308594 C 144.703125 133.59375 145.589844 132.902344 146.492188 132.234375 C 147.394531 131.5625 148.316406 130.914062 149.25 130.289062 C 150.183594 129.664062 151.132812 129.0625 152.097656 128.484375 C 153.0625 127.90625 154.042969 127.355469 155.035156 126.824219 C 156.027344 126.292969 157.03125 125.789062 158.046875 125.308594 C 159.0625 124.828125 160.089844 124.371094 161.128906 123.941406 C 162.167969 123.511719 163.21875 123.105469 164.277344 122.726562 C 165.335938 122.347656 166.402344 121.996094 167.480469 121.667969 C 168.554688 121.34375 169.640625 121.042969 170.730469 120.769531 C 171.820312 120.496094 172.917969 120.25 174.019531 120.03125 C 175.125 119.808594 176.230469 119.617188 177.34375 119.453125 C 178.457031 119.289062 179.574219 119.152344 180.691406 119.039062 C 181.8125 118.929688 182.933594 118.847656 184.054688 118.792969 C 185.179688 118.738281 186.300781 118.710938 187.425781 118.710938 C 188.550781 118.710938 189.675781 118.738281 190.800781 118.792969 C 191.921875 118.847656 193.042969 118.929688 194.164062 119.039062 C 195.28125 119.152344 196.398438 119.289062 197.511719 119.453125 C 198.621094 119.617188 199.730469 119.808594 200.832031 120.03125 C 201.9375 120.25 203.035156 120.496094 204.125 120.769531 C 205.214844 121.042969 206.296875 121.34375 207.375 121.667969 C 208.449219 121.996094 209.519531 122.347656 210.578125 122.726562 C 211.636719 123.105469 212.683594 123.511719 213.722656 123.941406 C 214.761719 124.371094 215.792969 124.828125 216.808594 125.308594 C 217.824219 125.789062 218.828125 126.292969 219.820312 126.824219 C 220.8125 127.355469 221.789062 127.90625 222.753906 128.484375 C 223.71875 129.0625 224.667969 129.664062 225.605469 130.289062 C 226.539062 130.914062 227.460938 131.5625 228.363281 132.234375 C 229.265625 132.902344 230.152344 133.59375 231.019531 134.308594 C 231.890625 135.019531 232.742188 135.753906 233.574219 136.511719 C 234.410156 137.265625 235.222656 138.042969 236.019531 138.835938 C 236.8125 139.632812 237.589844 140.445312 238.34375 141.277344 C 239.097656 142.113281 239.832031 142.964844 240.546875 143.832031 C 241.261719 144.703125 241.953125 145.589844 242.621094 146.492188 C 243.292969 147.394531 243.9375 148.316406 244.5625 149.25 C 245.1875 150.183594 245.789062 151.132812 246.367188 152.097656 C 246.945312 153.0625 247.5 154.042969 248.03125 155.035156 C 248.5625 156.027344 249.066406 157.03125 249.546875 158.046875 C 250.027344 159.0625 250.484375 160.089844 250.914062 161.128906 C 251.34375 162.167969 251.75 163.21875 252.128906 164.277344 C 252.507812 165.335938 252.859375 166.402344 253.1875 167.480469 C 253.511719 168.554688 253.8125 169.640625 254.085938 170.730469 C 254.359375 171.820312 254.605469 172.917969 254.824219 174.019531 C 255.042969 175.125 255.234375 176.230469 255.402344 177.34375 C 255.566406 178.457031 255.703125 179.574219 255.8125 180.691406 C 255.925781 181.8125 256.007812 182.933594 256.0625 184.054688 C 256.117188 185.179688 256.144531 186.300781 256.144531 187.425781 Z M 256.144531 187.425781 " fill-opacity="1" fill-rule="nonzero"/><g clip-path="url(#436c9e66ec)"><path fill="#0a57a2" d="M 257.296875 14.550781 L 117.558594 14.550781 C 115.871094 14.554688 114.1875 14.597656 112.503906 14.679688 C 110.820312 14.761719 109.140625 14.886719 107.464844 15.054688 C 105.785156 15.222656 104.113281 15.429688 102.445312 15.675781 C 100.78125 15.925781 99.121094 16.214844 97.464844 16.542969 C 95.8125 16.871094 94.171875 17.242188 92.535156 17.652344 C 90.902344 18.0625 89.277344 18.515625 87.664062 19.003906 C 86.050781 19.492188 84.453125 20.023438 82.867188 20.589844 C 81.277344 21.160156 79.707031 21.765625 78.148438 22.414062 C 76.59375 23.058594 75.054688 23.742188 73.53125 24.460938 C 72.007812 25.183594 70.5 25.941406 69.015625 26.734375 C 67.527344 27.53125 66.0625 28.363281 64.617188 29.230469 C 63.171875 30.09375 61.75 30.996094 60.347656 31.933594 C 58.945312 32.871094 57.570312 33.839844 56.214844 34.84375 C 54.863281 35.847656 53.535156 36.886719 52.230469 37.957031 C 50.929688 39.023438 49.652344 40.125 48.402344 41.257812 C 47.15625 42.390625 45.933594 43.550781 44.742188 44.742188 C 43.550781 45.933594 42.390625 47.15625 41.257812 48.402344 C 40.125 49.652344 39.023438 50.929688 37.957031 52.230469 C 36.886719 53.535156 35.847656 54.863281 34.84375 56.214844 C 33.839844 57.570312 32.871094 58.945312 31.933594 60.347656 C 30.996094 61.75 30.09375 63.171875 29.230469 64.617188 C 28.363281 66.0625 27.53125 67.527344 26.734375 69.015625 C 25.941406 70.5 25.183594 72.007812 24.460938 73.53125 C 23.742188 75.054688 23.058594 76.59375 22.414062 78.148438 C 21.765625 79.707031 21.160156 81.277344 20.589844 82.867188 C 20.023438 84.453125 19.492188 86.050781 19.003906 87.664062 C 18.515625 89.277344 18.0625 90.902344 17.652344 92.535156 C 17.242188 94.171875 16.871094 95.8125 16.542969 97.464844 C 16.214844 99.121094 15.925781 100.78125 15.675781 102.445312 C 15.429688 104.113281 15.222656 105.785156 15.054688 107.464844 C 14.886719 109.140625 14.761719 110.820312 14.679688 112.503906 C 14.597656 114.1875 14.554688 115.871094 14.550781 117.558594 L 14.550781 257.296875 C 14.554688 258.984375 14.597656 260.667969 14.679688 262.351562 C 14.761719 264.035156 14.886719 265.714844 15.054688 267.390625 C 15.222656 269.070312 15.429688 270.742188 15.675781 272.40625 C 15.925781 274.074219 16.214844 275.734375 16.542969 277.386719 C 16.871094 279.039062 17.242188 280.683594 17.652344 282.320312 C 18.0625 283.953125 18.515625 285.578125 19.003906 287.191406 C 19.492188 288.804688 20.023438 290.402344 20.589844 291.988281 C 21.160156 293.574219 21.765625 295.148438 22.414062 296.703125 C 23.058594 298.261719 23.742188 299.800781 24.460938 301.324219 C 25.183594 302.847656 25.941406 304.351562 26.734375 305.839844 C 27.53125 307.324219 28.363281 308.792969 29.230469 310.238281 C 30.09375 311.683594 30.996094 313.105469 31.933594 314.507812 C 32.871094 315.90625 33.839844 317.285156 34.84375 318.640625 C 35.847656 319.992188 36.886719 321.320312 37.957031 322.625 C 39.023438 323.925781 40.125 325.203125 41.257812 326.449219 C 42.390625 327.699219 43.550781 328.921875 44.742188 330.113281 C 45.933594 331.304688 47.15625 332.464844 48.402344 333.597656 C 49.652344 334.730469 50.929688 335.828125 52.230469 336.898438 C 53.535156 337.96875 54.863281 339.003906 56.214844 340.007812 C 57.570312 341.011719 58.945312 341.984375 60.347656 342.921875 C 61.75 343.855469 63.171875 344.757812 64.617188 345.625 C 66.0625 346.492188 67.527344 347.324219 69.015625 348.117188 C 70.5 348.914062 72.007812 349.671875 73.53125 350.390625 C 75.054688 351.113281 76.59375 351.796875 78.148438 352.441406 C 79.707031 353.085938 81.277344 353.695312 82.867188 354.261719 C 84.453125 354.832031 86.050781 355.359375 87.664062 355.851562 C 89.277344 356.339844 90.902344 356.789062 92.535156 357.199219 C 94.171875 357.613281 95.8125 357.980469 97.464844 358.3125 C 99.121094 358.640625 100.78125 358.929688 102.445312 359.179688 C 104.113281 359.425781 105.785156 359.632812 107.464844 359.800781 C 109.140625 359.964844 110.820312 360.089844 112.503906 360.175781 C 114.1875 360.257812 115.871094 360.300781 117.558594 360.300781 L 257.296875 360.300781 C 258.984375 360.300781 260.667969 360.257812 262.351562 360.175781 C 264.035156 360.089844 265.714844 359.964844 267.390625 359.800781 C 269.070312 359.632812 270.742188 359.425781 272.40625 359.179688 C 274.074219 358.929688 275.734375 358.640625 277.386719 358.3125 C 279.039062 357.980469 280.683594 357.613281 282.320312 357.199219 C 283.953125 356.789062 285.578125 356.339844 287.191406 355.851562 C 288.804688 355.359375 290.402344 354.832031 291.988281 354.261719 C 293.574219 353.695312 295.148438 353.085938 296.703125 352.441406 C 298.261719 351.796875 299.800781 351.113281 301.324219 350.390625 C 302.847656 349.671875 304.351562 348.914062 305.839844 348.117188 C 307.324219 347.324219 308.792969 346.492188 310.238281 345.625 C 311.683594 344.757812 313.105469 343.855469 314.507812 342.921875 C 315.90625 341.984375 317.285156 341.011719 318.640625 340.007812 C 319.992188 339.003906 321.320312 337.96875 322.625 336.898438 C 323.925781 335.828125 325.203125 334.730469 326.449219 333.597656 C 327.699219 332.464844 328.921875 331.304688 330.113281 330.113281 C 331.304688 328.921875 332.464844 327.699219 333.597656 326.449219 C 334.730469 325.203125 335.828125 323.925781 336.898438 322.625 C 337.96875 321.320312 339.003906 319.992188 340.007812 318.640625 C 341.015625 317.285156 341.984375 315.90625 342.921875 314.507812 C 343.855469 313.105469 344.757812 311.683594 345.625 310.238281 C 346.492188 308.792969 347.324219 307.324219 348.117188 305.839844 C 348.914062 304.351562 349.671875 302.847656 350.390625 301.324219 C 351.113281 299.800781 351.796875 298.261719 352.441406 296.703125 C 353.085938 295.148438 353.695312 293.574219 354.261719 291.988281 C 354.832031 290.402344 355.359375 288.804688 355.851562 287.191406 C 356.339844 285.578125 356.789062 283.953125 357.199219 282.320312 C 357.613281 280.683594 357.980469 279.039062 358.3125 277.386719 C 358.640625 275.734375 358.929688 274.074219 359.179688 272.40625 C 359.425781 270.742188 359.632812 269.070312 359.800781 267.390625 C 359.964844 265.714844 360.089844 264.035156 360.175781 262.351562 C 360.257812 260.667969 360.300781 258.984375 360.300781 257.296875 L 360.300781 117.558594 C 360.300781 115.871094 360.257812 114.1875 360.175781 112.503906 C 360.089844 110.820312 359.964844 109.140625 359.800781 107.464844 C 359.632812 105.785156 359.425781 104.113281 359.179688 102.445312 C 358.929688 100.78125 358.640625 99.121094 358.3125 97.464844 C 357.980469 95.8125 357.613281 94.171875 357.199219 92.535156 C 356.789062 90.902344 356.339844 89.277344 355.851562 87.664062 C 355.359375 86.050781 354.832031 84.453125 354.261719 82.867188 C 353.695312 81.277344 353.085938 79.707031 352.441406 78.148438 C 351.796875 76.59375 351.113281 75.054688 350.390625 73.53125 C 349.671875 72.007812 348.914062 70.5 348.117188 69.015625 C 347.324219 67.527344 346.492188 66.0625 345.625 64.617188 C 344.757812 63.171875 343.855469 61.75 342.921875 60.347656 C 341.984375 58.945312 341.011719 57.570312 340.007812 56.214844 C 339.003906 54.863281 337.96875 53.535156 336.898438 52.230469 C 335.828125 50.929688 334.730469 49.652344 333.597656 48.402344 C 332.464844 47.15625 331.304688 45.933594 330.113281 44.742188 C 328.921875 43.550781 327.699219 42.390625 326.449219 41.257812 C 325.203125 40.125 323.925781 39.023438 322.625 37.957031 C 321.320312 36.886719 319.992188 35.847656 318.640625 34.84375 C 317.285156 33.839844 315.90625 32.871094 314.507812 31.933594 C 313.105469 30.996094 311.683594 30.09375 310.238281 29.230469 C 308.792969 28.363281 307.324219 27.53125 305.839844 26.734375 C 304.351562 25.941406 302.847656 25.183594 301.324219 24.460938 C 299.800781 23.742188 298.261719 23.058594 296.703125 22.414062 C 295.148438 21.765625 293.574219 21.160156 291.988281 20.589844 C 290.402344 20.023438 288.804688 19.492188 287.191406 19.003906 C 285.578125 18.515625 283.953125 18.0625 282.320312 17.652344 C 280.683594 17.242188 279.039062 16.871094 277.386719 16.542969 C 275.734375 16.214844 274.074219 15.925781 272.40625 15.675781 C 270.742188 15.429688 269.070312 15.222656 267.390625 15.054688 C 265.714844 14.886719 264.035156 14.761719 262.351562 14.679688 C 260.667969 14.597656 258.984375 14.554688 257.296875 14.550781 Z M 325.511719 257.296875 C 325.511719 258.414062 325.484375 259.53125 325.429688 260.644531 C 325.375 261.757812 325.292969 262.871094 325.183594 263.984375 C 325.074219 265.09375 324.9375 266.203125 324.773438 267.304688 C 324.609375 268.410156 324.417969 269.511719 324.199219 270.605469 C 323.984375 271.699219 323.738281 272.789062 323.46875 273.871094 C 323.195312 274.953125 322.898438 276.03125 322.574219 277.097656 C 322.25 278.167969 321.898438 279.226562 321.523438 280.277344 C 321.148438 281.328125 320.746094 282.371094 320.320312 283.402344 C 319.890625 284.433594 319.4375 285.453125 318.960938 286.460938 C 318.484375 287.472656 317.984375 288.46875 317.457031 289.453125 C 316.929688 290.4375 316.378906 291.410156 315.804688 292.367188 C 315.230469 293.324219 314.636719 294.265625 314.015625 295.195312 C 313.394531 296.125 312.753906 297.035156 312.085938 297.933594 C 311.421875 298.828125 310.734375 299.707031 310.027344 300.570312 C 309.320312 301.433594 308.589844 302.28125 307.839844 303.105469 C 307.089844 303.933594 306.320312 304.742188 305.53125 305.53125 C 304.742188 306.320312 303.933594 307.089844 303.105469 307.839844 C 302.28125 308.589844 301.433594 309.320312 300.570312 310.027344 C 299.707031 310.734375 298.828125 311.421875 297.933594 312.085938 C 297.035156 312.753906 296.125 313.394531 295.195312 314.015625 C 294.265625 314.636719 293.324219 315.230469 292.367188 315.804688 C 291.410156 316.378906 290.4375 316.929688 289.453125 317.457031 C 288.46875 317.984375 287.472656 318.484375 286.460938 318.960938 C 285.453125 319.4375 284.433594 319.890625 283.402344 320.320312 C 282.371094 320.746094 281.328125 321.148438 280.277344 321.523438 C 279.226562 321.898438 278.167969 322.25 277.097656 322.574219 C 276.03125 322.898438 274.953125 323.195312 273.871094 323.46875 C 272.789062 323.738281 271.699219 323.984375 270.605469 324.199219 C 269.511719 324.417969 268.410156 324.609375 267.304688 324.773438 C 266.203125 324.9375 265.09375 325.074219 263.984375 325.183594 C 262.871094 325.292969 261.757812 325.375 260.644531 325.429688 C 259.53125 325.484375 258.414062 325.511719 257.296875 325.511719 L 117.558594 325.511719 C 116.441406 325.511719 115.324219 325.484375 114.210938 325.429688 C 113.09375 325.375 111.980469 325.292969 110.871094 325.183594 C 109.761719 325.074219 108.652344 324.9375 107.546875 324.773438 C 106.445312 324.609375 105.34375 324.417969 104.25 324.199219 C 103.152344 323.984375 102.066406 323.738281 100.980469 323.46875 C 99.898438 323.195312 98.824219 322.898438 97.753906 322.574219 C 96.6875 322.25 95.628906 321.898438 94.578125 321.523438 C 93.523438 321.148438 92.484375 320.746094 91.453125 320.320312 C 90.421875 319.890625 89.402344 319.4375 88.390625 318.960938 C 87.382812 318.484375 86.386719 317.984375 85.402344 317.457031 C 84.417969 316.929688 83.445312 316.378906 82.488281 315.804688 C 81.53125 315.230469 80.585938 314.636719 79.660156 314.015625 C 78.730469 313.394531 77.820312 312.753906 76.921875 312.085938 C 76.027344 311.421875 75.144531 310.734375 74.28125 310.027344 C 73.417969 309.320312 72.574219 308.589844 71.746094 307.839844 C 70.921875 307.089844 70.113281 306.320312 69.324219 305.53125 C 68.535156 304.742188 67.765625 303.933594 67.015625 303.105469 C 66.265625 302.28125 65.535156 301.433594 64.828125 300.570312 C 64.117188 299.707031 63.433594 298.828125 62.765625 297.933594 C 62.101562 297.035156 61.460938 296.125 60.839844 295.195312 C 60.21875 294.265625 59.621094 293.324219 59.046875 292.367188 C 58.472656 291.410156 57.925781 290.4375 57.398438 289.453125 C 56.871094 288.46875 56.371094 287.472656 55.890625 286.460938 C 55.414062 285.453125 54.964844 284.433594 54.535156 283.402344 C 54.109375 282.371094 53.707031 281.328125 53.332031 280.277344 C 52.953125 279.226562 52.605469 278.167969 52.28125 277.097656 C 51.957031 276.03125 51.660156 274.953125 51.386719 273.871094 C 51.117188 272.789062 50.871094 271.699219 50.652344 270.605469 C 50.4375 269.511719 50.246094 268.410156 50.082031 267.304688 C 49.917969 266.203125 49.78125 265.09375 49.671875 263.984375 C 49.5625 262.871094 49.480469 261.757812 49.425781 260.644531 C 49.371094 259.53125 49.34375 258.414062 49.34375 257.296875 L 49.34375 117.558594 C 49.34375 116.441406 49.371094 115.324219 49.425781 114.210938 C 49.480469 113.09375 49.5625 111.980469 49.671875 110.871094 C 49.78125 109.761719 49.917969 108.652344 50.082031 107.546875 C 50.246094 106.445312 50.4375 105.34375 50.652344 104.25 C 50.871094 103.152344 51.117188 102.066406 51.386719 100.980469 C 51.660156 99.898438 51.957031 98.824219 52.28125 97.753906 C 52.605469 96.6875 52.953125 95.628906 53.332031 94.578125 C 53.707031 93.523438 54.109375 92.484375 54.535156 91.453125 C 54.964844 90.421875 55.414062 89.402344 55.890625 88.390625 C 56.371094 87.382812 56.871094 86.386719 57.398438 85.402344 C 57.925781 84.417969 58.472656 83.445312 59.046875 82.488281 C 59.621094 81.53125 60.21875 80.585938 60.839844 79.660156 C 61.460938 78.730469 62.101562 77.820312 62.765625 76.921875 C 63.433594 76.027344 64.117188 75.144531 64.828125 74.28125 C 65.535156 73.417969 66.265625 72.574219 67.015625 71.746094 C 67.765625 70.921875 68.535156 70.113281 69.324219 69.324219 C 70.113281 68.535156 70.921875 67.765625 71.746094 67.015625 C 72.574219 66.265625 73.417969 65.535156 74.28125 64.828125 C 75.144531 64.117188 76.027344 63.433594 76.921875 62.765625 C 77.820312 62.101562 78.730469 61.460938 79.660156 60.839844 C 80.585938 60.21875 81.53125 59.621094 82.488281 59.046875 C 83.445312 58.472656 84.417969 57.925781 85.402344 57.398438 C 86.386719 56.871094 87.382812 56.371094 88.390625 55.890625 C 89.402344 55.414062 90.421875 54.964844 91.453125 54.535156 C 92.484375 54.109375 93.523438 53.707031 94.578125 53.332031 C 95.628906 52.953125 96.6875 52.605469 97.753906 52.28125 C 98.824219 51.957031 99.898438 51.660156 100.980469 51.386719 C 102.066406 51.117188 103.152344 50.871094 104.25 50.652344 C 105.34375 50.4375 106.445312 50.246094 107.546875 50.082031 C 108.652344 49.917969 109.761719 49.78125 110.871094 49.671875 C 111.980469 49.5625 113.09375 49.480469 114.210938 49.425781 C 115.324219 49.371094 116.441406 49.34375 117.558594 49.34375 L 257.296875 49.34375 C 258.414062 49.34375 259.53125 49.371094 260.644531 49.425781 C 261.757812 49.480469 262.871094 49.5625 263.984375 49.671875 C 265.09375 49.78125 266.203125 49.917969 267.304688 50.082031 C 268.410156 50.246094 269.511719 50.4375 270.605469 50.652344 C 271.699219 50.871094 272.789062 51.117188 273.871094 51.386719 C 274.953125 51.660156 276.03125 51.957031 277.097656 52.28125 C 278.167969 52.605469 279.226562 52.953125 280.277344 53.332031 C 281.328125 53.707031 282.371094 54.109375 283.402344 54.535156 C 284.433594 54.964844 285.453125 55.414062 286.460938 55.890625 C 287.472656 56.371094 288.46875 56.871094 289.453125 57.398438 C 290.4375 57.925781 291.410156 58.472656 292.367188 59.046875 C 293.324219 59.621094 294.265625 60.21875 295.195312 60.839844 C 296.125 61.460938 297.035156 62.101562 297.933594 62.765625 C 298.828125 63.433594 299.707031 64.117188 300.570312 64.828125 C 301.433594 65.535156 302.28125 66.265625 303.105469 67.015625 C 303.933594 67.761719 304.742188 68.535156 305.53125 69.324219 C 306.320312 70.113281 307.089844 70.921875 307.839844 71.746094 C 308.589844 72.574219 309.320312 73.417969 310.027344 74.28125 C 310.734375 75.144531 311.421875 76.027344 312.085938 76.921875 C 312.753906 77.820312 313.394531 78.730469 314.015625 79.660156 C 314.636719 80.585938 315.230469 81.53125 315.804688 82.488281 C 316.378906 83.445312 316.929688 84.417969 317.457031 85.402344 C 317.984375 86.386719 318.484375 87.382812 318.960938 88.390625 C 319.4375 89.402344 319.890625 90.421875 320.320312 91.453125 C 320.746094 92.484375 321.148438 93.523438 321.523438 94.578125 C 321.898438 95.628906 322.25 96.6875 322.574219 97.753906 C 322.898438 98.824219 323.195312 99.898438 323.46875 100.980469 C 323.738281 102.066406 323.984375 103.152344 324.199219 104.25 C 324.417969 105.34375 324.609375 106.445312 324.773438 107.546875 C 324.9375 108.652344 325.074219 109.761719 325.183594 110.871094 C 325.292969 111.980469 325.375 113.09375 325.429688 114.210938 C 325.484375 115.324219 325.511719 116.441406 325.511719 117.558594 Z M 325.511719 257.296875 " fill-opacity="1" fill-rule="nonzero"/></g><path fill="#dfe8f4" d="M 187.425781 98.035156 C 185.964844 98.035156 184.503906 98.074219 183.042969 98.144531 C 181.578125 98.214844 180.121094 98.324219 178.664062 98.46875 C 177.210938 98.609375 175.757812 98.789062 174.3125 99.003906 C 172.863281 99.21875 171.421875 99.46875 169.988281 99.753906 C 168.554688 100.039062 167.125 100.359375 165.707031 100.714844 C 164.289062 101.070312 162.878906 101.460938 161.476562 101.886719 C 160.078125 102.308594 158.691406 102.769531 157.3125 103.261719 C 155.933594 103.753906 154.570312 104.28125 153.21875 104.839844 C 151.867188 105.402344 150.53125 105.992188 149.207031 106.617188 C 147.886719 107.246094 146.578125 107.902344 145.289062 108.589844 C 144 109.28125 142.726562 110.003906 141.472656 110.753906 C 140.214844 111.507812 138.980469 112.289062 137.765625 113.101562 C 136.546875 113.914062 135.351562 114.757812 134.175781 115.628906 C 133.003906 116.5 131.847656 117.398438 130.71875 118.328125 C 129.585938 119.253906 128.480469 120.210938 127.394531 121.191406 C 126.3125 122.175781 125.253906 123.183594 124.21875 124.21875 C 123.183594 125.253906 122.175781 126.3125 121.191406 127.394531 C 120.210938 128.480469 119.253906 129.585938 118.328125 130.71875 C 117.398438 131.847656 116.5 133.003906 115.628906 134.175781 C 114.757812 135.351562 113.914062 136.546875 113.101562 137.765625 C 112.289062 138.980469 111.507812 140.214844 110.753906 141.472656 C 110.003906 142.726562 109.28125 144 108.589844 145.289062 C 107.902344 146.578125 107.246094 147.886719 106.617188 149.207031 C 105.992188 150.53125 105.402344 151.867188 104.839844 153.21875 C 104.28125 154.570312 103.753906 155.933594 103.261719 157.3125 C 102.769531 158.691406 102.308594 160.078125 101.886719 161.476562 C 101.460938 162.878906 101.070312 164.289062 100.714844 165.707031 C 100.359375 167.125 100.039062 168.554688 99.753906 169.988281 C 99.46875 171.421875 99.21875 172.863281 99.003906 174.3125 C 98.789062 175.757812 98.609375 177.210938 98.46875 178.664062 C 98.324219 180.121094 98.214844 181.578125 98.144531 183.042969 C 98.074219 184.503906 98.035156 185.964844 98.035156 187.425781 C 98.035156 188.890625 98.074219 190.351562 98.144531 191.8125 C 98.214844 193.273438 98.324219 194.734375 98.46875 196.1875 C 98.609375 197.644531 98.789062 199.097656 99.003906 200.542969 C 99.21875 201.992188 99.46875 203.433594 99.753906 204.867188 C 100.039062 206.300781 100.359375 207.726562 100.714844 209.148438 C 101.070312 210.566406 101.460938 211.976562 101.886719 213.375 C 102.308594 214.777344 102.769531 216.164062 103.261719 217.542969 C 103.753906 218.917969 104.28125 220.285156 104.839844 221.636719 C 105.402344 222.988281 105.992188 224.324219 106.617188 225.648438 C 107.246094 226.96875 107.902344 228.277344 108.589844 229.566406 C 109.28125 230.855469 110.003906 232.128906 110.753906 233.382812 C 111.507812 234.636719 112.289062 235.875 113.101562 237.089844 C 113.914062 238.304688 114.757812 239.503906 115.628906 240.675781 C 116.5 241.851562 117.398438 243.003906 118.328125 244.136719 C 119.253906 245.265625 120.210938 246.375 121.191406 247.457031 C 122.175781 248.542969 123.183594 249.601562 124.21875 250.636719 C 125.253906 251.671875 126.3125 252.679688 127.394531 253.660156 C 128.480469 254.644531 129.585938 255.597656 130.71875 256.527344 C 131.847656 257.457031 133.003906 258.355469 134.175781 259.226562 C 135.351562 260.097656 136.546875 260.941406 137.765625 261.753906 C 138.980469 262.566406 140.214844 263.347656 141.472656 264.101562 C 142.726562 264.851562 144 265.574219 145.289062 266.261719 C 146.578125 266.953125 147.886719 267.609375 149.207031 268.234375 C 150.53125 268.859375 151.867188 269.453125 153.21875 270.011719 C 154.570312 270.574219 155.933594 271.101562 157.3125 271.59375 C 158.691406 272.085938 160.078125 272.542969 161.476562 272.96875 C 162.878906 273.394531 164.289062 273.785156 165.707031 274.140625 C 167.125 274.496094 168.554688 274.816406 169.988281 275.101562 C 171.421875 275.386719 172.863281 275.636719 174.3125 275.851562 C 175.757812 276.066406 177.210938 276.246094 178.664062 276.386719 C 180.121094 276.53125 181.578125 276.636719 183.042969 276.710938 C 184.503906 276.78125 185.964844 276.816406 187.425781 276.816406 C 188.890625 276.816406 190.351562 276.78125 191.8125 276.710938 C 193.273438 276.636719 194.734375 276.53125 196.1875 276.386719 C 197.644531 276.242188 199.097656 276.066406 200.542969 275.851562 C 201.992188 275.636719 203.433594 275.386719 204.867188 275.101562 C 206.300781 274.816406 207.726562 274.496094 209.148438 274.140625 C 210.566406 273.785156 211.976562 273.394531 213.375 272.96875 C 214.777344 272.542969 216.164062 272.085938 217.542969 271.59375 C 218.917969 271.101562 220.285156 270.574219 221.636719 270.011719 C 222.988281 269.453125 224.324219 268.859375 225.648438 268.234375 C 226.96875 267.609375 228.277344 266.953125 229.566406 266.261719 C 230.855469 265.574219 232.128906 264.851562 233.382812 264.101562 C 234.636719 263.347656 235.875 262.566406 237.089844 261.753906 C 238.304688 260.941406 239.503906 260.097656 240.675781 259.226562 C 241.851562 258.355469 243.003906 257.457031 244.136719 256.527344 C 245.265625 255.597656 246.375 254.644531 247.457031 253.660156 C 248.542969 252.679688 249.601562 251.671875 250.636719 250.636719 C 251.671875 249.601562 252.679688 248.542969 253.660156 247.457031 C 254.644531 246.375 255.597656 245.265625 256.527344 244.136719 C 257.457031 243.003906 258.355469 241.851562 259.226562 240.675781 C 260.097656 239.503906 260.941406 238.304688 261.753906 237.089844 C 262.566406 235.875 263.347656 234.636719 264.101562 233.382812 C 264.851562 232.128906 265.574219 230.855469 266.261719 229.566406 C 266.953125 228.277344 267.609375 226.96875 268.234375 225.648438 C 268.859375 224.324219 269.453125 222.988281 270.011719 221.636719 C 270.574219 220.285156 271.101562 218.917969 271.59375 217.542969 C 272.085938 216.164062 272.542969 214.777344 272.96875 213.375 C 273.394531 211.976562 273.785156 210.566406 274.140625 209.148438 C 274.496094 207.726562 274.816406 206.300781 275.101562 204.867188 C 275.386719 203.433594 275.636719 201.992188 275.851562 200.542969 C 276.066406 199.097656 276.246094 197.644531 276.386719 196.1875 C 276.53125 194.734375 276.636719 193.273438 276.710938 191.8125 C 276.78125 190.351562 276.816406 188.890625 276.816406 187.425781 C 276.816406 185.964844 276.78125 184.503906 276.710938 183.039062 C 276.636719 181.578125 276.53125 180.121094 276.386719 178.664062 C 276.242188 177.210938 276.066406 175.757812 275.851562 174.3125 C 275.636719 172.863281 275.386719 171.421875 275.101562 169.988281 C 274.816406 168.554688 274.496094 167.125 274.140625 165.707031 C 273.785156 164.289062 273.394531 162.878906 272.96875 161.476562 C 272.542969 160.078125 272.085938 158.691406 271.59375 157.3125 C 271.101562 155.933594 270.574219 154.570312 270.011719 153.21875 C 269.453125 151.867188 268.859375 150.53125 268.234375 149.207031 C 267.609375 147.886719 266.953125 146.578125 266.261719 145.289062 C 265.574219 144 264.851562 142.726562 264.101562 141.472656 C 263.347656 140.214844 262.566406 138.980469 261.753906 137.765625 C 260.941406 136.546875 260.097656 135.351562 259.226562 134.175781 C 258.355469 133.003906 257.457031 131.847656 256.527344 130.71875 C 255.597656 129.585938 254.644531 128.480469 253.660156 127.394531 C 252.679688 126.3125 251.671875 125.253906 250.636719 124.21875 C 249.601562 123.183594 248.542969 122.175781 247.457031 121.191406 C 246.375 120.210938 245.265625 119.253906 244.136719 118.328125 C 243.003906 117.398438 241.851562 116.5 240.675781 115.628906 C 239.503906 114.757812 238.304688 113.914062 237.089844 113.101562 C 235.875 112.289062 234.636719 111.507812 233.382812 110.753906 C 232.128906 110.003906 230.855469 109.28125 229.566406 108.589844 C 228.277344 107.902344 226.96875 107.246094 225.648438 106.617188 C 224.324219 105.992188 222.988281 105.402344 221.636719 104.839844 C 220.285156 104.28125 218.917969 103.753906 217.542969 103.261719 C 216.164062 102.769531 214.777344 102.308594 213.375 101.886719 C 211.976562 101.460938 210.566406 101.070312 209.148438 100.714844 C 207.726562 100.359375 206.300781 100.039062 204.867188 99.753906 C 203.433594 99.46875 201.992188 99.21875 200.542969 99.003906 C 199.097656 98.789062 197.644531 98.609375 196.1875 98.46875 C 194.734375 98.324219 193.273438 98.214844 191.8125 98.144531 C 190.351562 98.074219 188.890625 98.035156 187.425781 98.035156 Z M 187.425781 242.097656 C 185.636719 242.097656 183.851562 242.011719 182.070312 241.835938 C 180.285156 241.660156 178.515625 241.398438 176.761719 241.046875 C 175.003906 240.699219 173.269531 240.265625 171.558594 239.746094 C 169.84375 239.226562 168.160156 238.621094 166.503906 237.9375 C 164.851562 237.253906 163.234375 236.488281 161.65625 235.644531 C 160.074219 234.800781 158.542969 233.878906 157.054688 232.886719 C 155.5625 231.890625 154.128906 230.824219 152.742188 229.6875 C 151.359375 228.554688 150.035156 227.351562 148.769531 226.085938 C 147.503906 224.820312 146.300781 223.496094 145.164062 222.109375 C 144.03125 220.726562 142.964844 219.289062 141.96875 217.800781 C 140.972656 216.3125 140.054688 214.777344 139.210938 213.199219 C 138.367188 211.621094 137.601562 210.003906 136.917969 208.347656 C 136.230469 206.695312 135.628906 205.011719 135.109375 203.296875 C 134.589844 201.585938 134.15625 199.847656 133.804688 198.09375 C 133.457031 196.335938 133.195312 194.566406 133.019531 192.785156 C 132.84375 191.003906 132.753906 189.21875 132.753906 187.425781 C 132.753906 185.636719 132.84375 183.851562 133.019531 182.070312 C 133.195312 180.285156 133.457031 178.515625 133.804688 176.761719 C 134.15625 175.003906 134.589844 173.269531 135.109375 171.558594 C 135.628906 169.84375 136.230469 168.160156 136.917969 166.503906 C 137.601562 164.851562 138.367188 163.234375 139.210938 161.65625 C 140.054688 160.074219 140.972656 158.542969 141.96875 157.054688 C 142.964844 155.5625 144.03125 154.128906 145.164062 152.742188 C 146.300781 151.359375 147.503906 150.035156 148.769531 148.769531 C 150.035156 147.503906 151.359375 146.300781 152.742188 145.164062 C 154.128906 144.03125 155.5625 142.964844 157.054688 141.96875 C 158.542969 140.972656 160.074219 140.054688 161.65625 139.210938 C 163.234375 138.367188 164.851562 137.601562 166.503906 136.917969 C 168.160156 136.230469 169.84375 135.628906 171.558594 135.109375 C 173.269531 134.589844 175.003906 134.15625 176.761719 133.804688 C 178.515625 133.457031 180.285156 133.195312 182.070312 133.019531 C 183.851562 132.84375 185.636719 132.753906 187.425781 132.753906 C 189.21875 132.753906 191.003906 132.84375 192.785156 133.019531 C 194.566406 133.195312 196.335938 133.457031 198.09375 133.804688 C 199.847656 134.15625 201.585938 134.589844 203.296875 135.109375 C 205.011719 135.628906 206.695312 136.230469 208.347656 136.917969 C 210.003906 137.601562 211.621094 138.367188 213.199219 139.210938 C 214.777344 140.054688 216.3125 140.972656 217.800781 141.96875 C 219.289062 142.964844 220.726562 144.03125 222.109375 145.164062 C 223.496094 146.300781 224.820312 147.503906 226.085938 148.769531 C 227.351562 150.035156 228.554688 151.359375 229.6875 152.742188 C 230.824219 154.128906 231.890625 155.5625 232.886719 157.054688 C 233.878906 158.542969 234.800781 160.074219 235.644531 161.65625 C 236.488281 163.234375 237.253906 164.851562 237.9375 166.503906 C 238.621094 168.160156 239.226562 169.84375 239.746094 171.558594 C 240.265625 173.269531 240.699219 175.003906 241.046875 176.761719 C 241.398438 178.515625 241.660156 180.285156 241.835938 182.070312 C 242.011719 183.851562 242.097656 185.636719 242.097656 187.425781 C 242.097656 189.21875 242.011719 191.003906 241.835938 192.785156 C 241.660156 194.566406 241.398438 196.335938 241.046875 198.09375 C 240.699219 199.847656 240.265625 201.585938 239.746094 203.296875 C 239.226562 205.011719 238.621094 206.695312 237.9375 208.347656 C 237.253906 210.003906 236.488281 211.621094 235.644531 213.199219 C 234.800781 214.777344 233.878906 216.3125 232.886719 217.800781 C 231.890625 219.289062 230.824219 220.726562 229.6875 222.109375 C 228.554688 223.496094 227.351562 224.820312 226.085938 226.085938 C 224.820312 227.351562 223.496094 228.554688 222.109375 229.6875 C 220.726562 230.824219 219.289062 231.890625 217.800781 232.886719 C 216.3125 233.878906 214.777344 234.800781 213.199219 235.644531 C 211.621094 236.488281 210.003906 237.253906 208.347656 237.9375 C 206.695312 238.621094 205.011719 239.226562 203.296875 239.746094 C 201.585938 240.265625 199.847656 240.699219 198.09375 241.046875 C 196.335938 241.398438 194.566406 241.660156 192.785156 241.835938 C 191.003906 242.011719 189.21875 242.097656 187.425781 242.097656 Z M 187.425781 242.097656 " fill-opacity="1" fill-rule="nonzero"/><path fill="#ccd8e5" d="M 289.710938 98.683594 C 289.710938 99.515625 289.628906 100.339844 289.46875 101.15625 C 289.304688 101.972656 289.066406 102.765625 288.746094 103.535156 C 288.429688 104.304688 288.039062 105.035156 287.574219 105.726562 C 287.113281 106.421875 286.585938 107.058594 286 107.648438 C 285.410156 108.238281 284.769531 108.761719 284.078125 109.226562 C 283.386719 109.6875 282.65625 110.078125 281.886719 110.398438 C 281.117188 110.714844 280.324219 110.957031 279.507812 111.117188 C 278.691406 111.28125 277.867188 111.363281 277.035156 111.363281 C 276.203125 111.363281 275.378906 111.28125 274.5625 111.117188 C 273.746094 110.957031 272.953125 110.714844 272.183594 110.398438 C 271.414062 110.078125 270.683594 109.6875 269.992188 109.226562 C 269.296875 108.761719 268.660156 108.238281 268.070312 107.648438 C 267.480469 107.058594 266.957031 106.421875 266.492188 105.726562 C 266.03125 105.035156 265.640625 104.304688 265.320312 103.535156 C 265.003906 102.765625 264.761719 101.972656 264.601562 101.15625 C 264.4375 100.339844 264.355469 99.515625 264.355469 98.683594 C 264.355469 97.851562 264.4375 97.027344 264.601562 96.210938 C 264.761719 95.394531 265.003906 94.601562 265.320312 93.832031 C 265.640625 93.0625 266.03125 92.332031 266.492188 91.640625 C 266.957031 90.949219 267.480469 90.308594 268.070312 89.71875 C 268.660156 89.132812 269.296875 88.605469 269.992188 88.144531 C 270.683594 87.679688 271.414062 87.289062 272.183594 86.972656 C 272.953125 86.652344 273.746094 86.414062 274.5625 86.25 C 275.378906 86.089844 276.203125 86.007812 277.035156 86.007812 C 277.867188 86.007812 278.691406 86.089844 279.507812 86.25 C 280.324219 86.414062 281.117188 86.652344 281.886719 86.972656 C 282.65625 87.289062 283.386719 87.679688 284.078125 88.144531 C 284.769531 88.605469 285.410156 89.132812 286 89.71875 C 286.585938 90.308594 287.113281 90.949219 287.574219 91.640625 C 288.039062 92.332031 288.429688 93.0625 288.746094 93.832031 C 289.066406 94.601562 289.304688 95.394531 289.46875 96.210938 C 289.628906 97.027344 289.710938 97.851562 289.710938 98.683594 Z M 289.710938 98.683594 " fill-opacity="1" fill-rule="nonzero"/></svg>