<svg xmlns="http://www.w3.org/2000/svg" xmlns:xlink="http://www.w3.org/1999/xlink" width="500" zoomAndPan="magnify" viewBox="0 0 375 374.999991" height="500" preserveAspectRatio="xMidYMid meet" version="1.0"><defs><clipPath id="50ee0f15b5"><path d="M 39.390625 32 L 337.140625 32 L 337.140625 287 L 39.390625 287 Z M 39.390625 32 " clip-rule="nonzero"/></clipPath></defs><path fill="#98ccfd" d="M 55.339844 87.394531 L 321.1875 87.394531 C 327.519531 87.394531 332.582031 92.460938 332.582031 98.792969 L 332.582031 270.777344 C 332.582031 277.109375 327.519531 282.175781 321.1875 282.175781 L 55.339844 282.175781 C 49.011719 282.175781 43.945312 277.109375 43.945312 270.777344 L 43.945312 98.792969 C 43.945312 92.460938 49.011719 87.394531 55.339844 87.394531 Z M 55.339844 87.394531 " fill-opacity="1" fill-rule="nonzero"/><path fill="#98ccfd" d="M 329.035156 90.433594 L 196.621094 206.945312 C 191.808594 211.253906 184.71875 211.253906 179.910156 206.945312 L 47.492188 90.433594 C 49.515625 88.40625 52.300781 87.394531 55.339844 87.394531 L 321.1875 87.394531 C 324.226562 87.394531 327.011719 88.40625 329.035156 90.433594 Z M 329.035156 90.433594 " fill-opacity="1" fill-rule="nonzero"/><path fill="#eef4ff" d="M 239.15625 87.394531 C 239.15625 89.0625 239.074219 90.722656 238.910156 92.382812 C 238.746094 94.042969 238.503906 95.691406 238.175781 97.324219 C 237.851562 98.960938 237.449219 100.578125 236.964844 102.171875 C 236.480469 103.769531 235.917969 105.335938 235.28125 106.875 C 234.644531 108.417969 233.929688 109.921875 233.144531 111.394531 C 232.359375 112.863281 231.503906 114.292969 230.578125 115.679688 C 229.652344 117.066406 228.660156 118.402344 227.601562 119.691406 C 226.546875 120.980469 225.429688 122.214844 224.25 123.394531 C 223.070312 124.574219 221.835938 125.691406 220.550781 126.75 C 219.261719 127.804688 217.921875 128.796875 216.539062 129.726562 C 215.152344 130.652344 213.722656 131.507812 212.253906 132.292969 C 210.785156 133.078125 209.277344 133.792969 207.738281 134.429688 C 206.199219 135.066406 204.632812 135.628906 203.035156 136.113281 C 201.441406 136.597656 199.828125 137 198.191406 137.328125 C 196.558594 137.652344 194.910156 137.898438 193.253906 138.058594 C 191.59375 138.222656 189.929688 138.304688 188.265625 138.304688 C 186.597656 138.304688 184.933594 138.222656 183.277344 138.058594 C 181.617188 137.898438 179.96875 137.652344 178.335938 137.328125 C 176.699219 137 175.085938 136.597656 173.492188 136.113281 C 171.894531 135.628906 170.328125 135.066406 168.789062 134.429688 C 167.25 133.792969 165.746094 133.078125 164.273438 132.292969 C 162.804688 131.507812 161.375 130.652344 159.992188 129.726562 C 158.605469 128.796875 157.269531 127.804688 155.980469 126.75 C 154.691406 125.691406 153.457031 124.574219 152.277344 123.394531 C 151.101562 122.214844 149.980469 120.980469 148.925781 119.691406 C 147.867188 118.402344 146.875 117.066406 145.949219 115.679688 C 145.023438 114.292969 144.167969 112.863281 143.382812 111.394531 C 142.597656 109.921875 141.886719 108.417969 141.246094 106.875 C 140.609375 105.335938 140.046875 103.769531 139.566406 102.171875 C 139.082031 100.578125 138.675781 98.960938 138.351562 97.324219 C 138.027344 95.691406 137.78125 94.042969 137.617188 92.382812 C 137.453125 90.722656 137.375 89.0625 137.375 87.394531 C 137.375 85.726562 137.453125 84.0625 137.617188 82.402344 C 137.78125 80.742188 138.027344 79.097656 138.351562 77.460938 C 138.675781 75.824219 139.082031 74.210938 139.566406 72.613281 C 140.046875 71.019531 140.609375 69.449219 141.246094 67.910156 C 141.886719 66.371094 142.597656 64.863281 143.382812 63.394531 C 144.167969 61.921875 145.023438 60.496094 145.949219 59.109375 C 146.875 57.722656 147.867188 56.382812 148.925781 55.09375 C 149.980469 53.804688 151.101562 52.574219 152.277344 51.394531 C 153.457031 50.214844 154.691406 49.097656 155.980469 48.039062 C 157.269531 46.980469 158.605469 45.988281 159.992188 45.0625 C 161.375 44.136719 162.804688 43.28125 164.273438 42.492188 C 165.746094 41.707031 167.25 40.996094 168.789062 40.355469 C 170.328125 39.71875 171.894531 39.15625 173.492188 38.675781 C 175.085938 38.191406 176.699219 37.785156 178.335938 37.460938 C 179.96875 37.136719 181.617188 36.890625 183.277344 36.726562 C 184.933594 36.5625 186.597656 36.480469 188.265625 36.480469 C 189.929688 36.480469 191.59375 36.5625 193.253906 36.726562 C 194.910156 36.890625 196.558594 37.136719 198.191406 37.460938 C 199.828125 37.785156 201.441406 38.191406 203.035156 38.675781 C 204.632812 39.15625 206.199219 39.71875 207.738281 40.355469 C 209.277344 40.996094 210.785156 41.707031 212.253906 42.492188 C 213.722656 43.28125 215.152344 44.136719 216.539062 45.0625 C 217.921875 45.988281 219.261719 46.980469 220.550781 48.039062 C 221.835938 49.097656 223.070312 50.214844 224.25 51.394531 C 225.429688 52.574219 226.546875 53.804688 227.601562 55.09375 C 228.660156 56.382812 229.652344 57.722656 230.578125 59.109375 C 231.503906 60.496094 232.359375 61.921875 233.144531 63.394531 C 233.929688 64.863281 234.644531 66.371094 235.28125 67.910156 C 235.917969 69.449219 236.480469 71.019531 236.964844 72.613281 C 237.449219 74.210938 237.851562 75.824219 238.175781 77.460938 C 238.503906 79.097656 238.746094 80.742188 238.910156 82.402344 C 239.074219 84.0625 239.15625 85.726562 239.15625 87.394531 Z M 239.15625 87.394531 " fill-opacity="1" fill-rule="nonzero"/><path fill="#0a57a2" d="M 192.0625 57 L 184.464844 57 C 169.78125 57 157.882812 68.902344 157.882812 83.59375 L 157.882812 91.191406 C 157.882812 105.882812 169.78125 117.789062 184.464844 117.789062 L 188.769531 117.789062 C 191.300781 117.789062 193.074219 115.761719 193.074219 113.230469 C 193.074219 110.695312 191.050781 108.671875 188.769531 108.671875 L 184.464844 108.671875 C 174.59375 108.671875 166.742188 100.816406 166.742188 90.941406 L 166.742188 83.339844 C 166.742188 73.460938 174.59375 65.609375 184.464844 65.609375 L 192.0625 65.609375 C 201.9375 65.609375 209.785156 73.460938 209.785156 83.339844 L 209.785156 96.765625 C 209.785156 98.03125 208.773438 99.046875 207.507812 99.046875 L 204.722656 99.046875 C 203.457031 99.046875 202.441406 98.03125 202.441406 96.765625 L 202.441406 84.355469 C 202.441406 78.023438 197.378906 72.957031 191.050781 72.957031 L 185.730469 72.957031 C 179.402344 72.957031 174.339844 78.023438 174.339844 84.355469 L 174.339844 89.671875 C 174.339844 96.003906 179.402344 101.070312 185.730469 101.070312 L 194.59375 101.070312 C 196.367188 105.125 200.164062 107.910156 204.722656 107.910156 L 207.507812 107.910156 C 213.582031 107.910156 218.648438 102.84375 218.648438 96.765625 L 218.648438 83.339844 C 218.648438 68.902344 206.746094 57 192.0625 57 Z M 183.199219 90.179688 L 183.199219 84.859375 C 183.199219 83.59375 184.214844 82.328125 185.730469 82.328125 L 191.050781 82.328125 C 192.316406 82.328125 193.582031 83.339844 193.582031 84.859375 L 193.582031 92.710938 L 185.730469 92.710938 C 184.214844 92.710938 183.199219 91.445312 183.199219 90.179688 Z M 183.199219 90.179688 " fill-opacity="1" fill-rule="nonzero"/><path fill="#0a57a2" d="M 247.511719 277.617188 L 236.117188 277.617188 C 233.585938 277.617188 231.558594 279.640625 231.558594 282.175781 C 231.558594 284.707031 233.585938 286.734375 236.117188 286.734375 L 247.511719 286.734375 C 250.042969 286.734375 252.066406 284.707031 252.066406 282.175781 C 252.066406 279.640625 250.042969 277.617188 247.511719 277.617188 Z M 247.511719 277.617188 " fill-opacity="1" fill-rule="nonzero"/><g clip-path="url(#50ee0f15b5)"><path fill="#0a57a2" d="M 321.1875 83.085938 L 243.207031 83.085938 C 240.675781 52.691406 214.089844 29.894531 183.707031 32.429688 C 170.035156 33.441406 157.121094 39.773438 147.753906 49.90625 C 145.980469 51.679688 146.234375 54.464844 148.007812 56.238281 C 149.78125 58.011719 152.5625 57.757812 154.335938 55.984375 C 163.199219 46.613281 175.351562 41.292969 188.265625 41.292969 C 213.835938 41.292969 234.597656 62.0625 234.597656 87.648438 C 234.597656 113.230469 213.835938 133.746094 188.265625 133.746094 C 162.691406 133.746094 141.929688 112.976562 141.929688 87.394531 C 141.929688 82.835938 142.691406 78.273438 143.957031 73.96875 C 144.714844 71.691406 143.449219 69.15625 140.917969 68.398438 C 138.640625 67.636719 136.105469 68.902344 135.347656 71.4375 C 134.082031 75.234375 133.574219 79.289062 133.070312 83.085938 L 55.339844 83.085938 C 46.730469 83.085938 39.640625 90.179688 39.390625 98.792969 L 39.390625 270.777344 C 39.390625 279.640625 46.476562 286.480469 55.339844 286.734375 L 211.558594 286.734375 C 214.089844 286.734375 216.113281 284.707031 216.113281 282.175781 C 216.113281 279.640625 214.089844 277.617188 211.558594 277.617188 L 55.59375 277.617188 L 154.335938 190.738281 L 176.871094 210.492188 C 183.453125 216.066406 193.074219 216.066406 199.40625 210.492188 L 221.9375 190.738281 L 320.683594 277.867188 L 270.804688 277.867188 C 268.273438 277.867188 266.246094 279.894531 266.246094 282.429688 C 266.246094 284.960938 268.273438 286.988281 270.804688 286.988281 L 321.1875 286.988281 C 330.050781 286.988281 336.886719 279.894531 337.140625 271.03125 L 337.140625 98.792969 C 336.886719 90.179688 329.796875 83.085938 321.1875 83.085938 Z M 48.503906 272.042969 C 48.503906 271.535156 48.25 271.03125 48.25 270.523438 L 48.25 98.792969 C 48.25 98.285156 48.25 97.777344 48.503906 97.273438 L 147.753906 184.65625 Z M 193.582031 203.65625 C 190.542969 206.441406 185.730469 206.441406 182.695312 203.65625 L 55.59375 91.953125 L 133.070312 91.953125 C 135.601562 122.347656 162.1875 145.144531 192.566406 142.609375 C 219.660156 140.332031 240.925781 119.054688 243.207031 91.953125 L 320.683594 91.953125 Z M 328.023438 97.273438 C 328.023438 97.777344 328.277344 98.285156 328.277344 98.792969 L 328.277344 270.777344 C 328.277344 271.28125 328.277344 271.789062 328.023438 272.296875 L 228.773438 184.65625 Z M 328.023438 97.273438 " fill-opacity="1" fill-rule="nonzero"/></g></svg>