<svg xmlns="http://www.w3.org/2000/svg" xmlns:xlink="http://www.w3.org/1999/xlink" width="500" zoomAndPan="magnify" viewBox="0 0 375 374.999991" height="500" preserveAspectRatio="xMidYMid meet" version="1.0"><defs><clipPath id="c8b5915ca1"><path d="M 27.144531 16.792969 L 348.144531 16.792969 L 348.144531 337.789062 L 27.144531 337.789062 Z M 27.144531 16.792969 " clip-rule="nonzero"/></clipPath></defs><path fill="#98ccfd" d="M 189.144531 22.425781 C 274.5625 22.425781 343.804688 91.535156 343.804688 176.792969 C 343.804688 262.050781 274.5625 331.164062 189.144531 331.164062 C 103.726562 331.164062 34.488281 262.042969 34.488281 176.785156 C 34.488281 91.527344 103.734375 22.425781 189.144531 22.425781 Z M 189.144531 22.425781 " fill-opacity="1" fill-rule="evenodd"/><path fill="#98ccfd" d="M 331.492188 116.339844 C 337.382812 133.050781 340.59375 151.015625 340.59375 169.738281 C 340.59375 214.054688 322.625 254.1875 293.582031 283.230469 C 264.542969 312.273438 224.40625 330.238281 180.09375 330.238281 C 176.394531 330.238281 172.726562 330.109375 169.089844 329.863281 C 116.191406 323.023438 71.675781 289.503906 49.535156 243.273438 C 56.253906 255.183594 64.558594 266.070312 74.15625 275.675781 C 101.265625 302.785156 138.726562 319.558594 180.09375 319.558594 C 221.460938 319.558594 258.921875 302.785156 286.03125 275.675781 C 313.140625 248.570312 329.914062 211.109375 329.914062 169.738281 C 329.914062 128.371094 313.140625 90.910156 286.03125 63.800781 C 268.625 46.402344 246.957031 33.257812 222.730469 26.085938 C 271.84375 36.933594 312.183594 71.089844 331.492188 116.339844 Z M 331.492188 116.339844 " fill-opacity="1" fill-rule="nonzero"/><path fill="#ffffff" d="M 112.691406 95.773438 L 155.554688 143.34375 L 138.613281 162.644531 C 138.613281 162.644531 134.488281 171.929688 141.710938 183.414062 C 148.925781 194.90625 169.839844 216.710938 176.917969 221.277344 C 183.984375 225.84375 192.828125 228.492188 201.808594 224.367188 C 210.789062 220.242188 220.515625 208.308594 220.515625 208.308594 L 266.179688 256.03125 L 244.96875 276.503906 C 244.96875 276.503906 226.414062 284.898438 210.355469 281.367188 C 194.296875 277.835938 142.746094 241.152344 142.746094 241.152344 L 95.902344 179.882812 C 95.902344 179.882812 79.988281 153.070312 81.90625 137.90625 C 83.824219 122.738281 90.15625 112.867188 94.425781 109.769531 C 98.679688 106.6875 112.691406 95.773438 112.691406 95.773438 Z M 112.691406 95.773438 " fill-opacity="1" fill-rule="evenodd"/><path fill="#0a57a2" d="M 152.398438 139.855469 C 151.847656 140.914062 151.125 141.910156 150.21875 142.785156 C 146.164062 146.722656 142.09375 150.640625 138.066406 154.597656 C 134.503906 158.289062 133.75 162.847656 135.21875 167.972656 C 135.820312 170.058594 136.742188 172.234375 137.980469 174.480469 C 138.566406 177.1875 139.695312 180.210938 141.703125 183.414062 C 148.917969 194.90625 169.828125 216.710938 176.90625 221.277344 C 179.402344 222.890625 182.125 224.269531 184.996094 225.183594 C 182.210938 225.191406 179.332031 224.710938 176.363281 223.765625 C 168.5625 221.285156 160.289062 215.488281 151.886719 207.265625 C 149.984375 205.402344 148.113281 203.460938 146.285156 201.453125 C 144.429688 199.65625 142.59375 197.777344 140.789062 195.820312 C 132.769531 187.160156 127.210938 178.726562 124.960938 170.894531 C 122.410156 162.011719 123.878906 153.953125 130.394531 147.207031 L 142.792969 135.136719 C 142.960938 134.96875 143.058594 134.742188 143.058594 134.527344 C 143.058594 134.292969 142.976562 134.058594 142.816406 133.890625 L 108.734375 98.832031 L 112.691406 95.757812 Z M 262.421875 252.125 C 261.84375 253.417969 261.019531 254.621094 259.949219 255.664062 C 256.074219 259.425781 252.140625 263.511719 248.160156 267.113281 C 235.363281 279.007812 220.859375 282.195312 206.117188 280.035156 C 186.769531 272.5 142.730469 241.171875 142.730469 241.171875 L 95.886719 179.898438 C 95.886719 179.898438 88.039062 166.675781 84.027344 153.546875 C 90.664062 171.953125 105.050781 192.433594 125.316406 213.203125 C 126.679688 214.605469 128.109375 216.035156 129.578125 217.488281 L 131.179688 219.179688 C 143.886719 232.632812 163.472656 250.878906 184.273438 261.488281 C 203.871094 271.488281 224.570312 274.546875 240.980469 259.257812 L 252.527344 248.046875 C 252.695312 247.878906 252.792969 247.652344 252.792969 247.445312 C 252.792969 247.210938 252.710938 246.980469 252.550781 246.8125 L 217.980469 211.246094 C 219.570312 209.511719 220.523438 208.339844 220.523438 208.339844 Z M 262.421875 252.125 " fill-opacity="1" fill-rule="nonzero"/><path fill="#98ccfd" d="M 152.398438 139.855469 C 151.847656 140.914062 151.125 141.910156 150.21875 142.785156 C 146.164062 146.722656 142.09375 150.640625 138.066406 154.597656 C 132.328125 160.542969 134.480469 168.09375 137.980469 174.480469 C 138.210938 174.957031 138.4375 176.542969 138.742188 177.25 C 139.503906 179.472656 140.457031 181.414062 141.703125 183.421875 C 148.917969 194.914062 169.828125 216.71875 176.90625 221.285156 C 179.476562 222.921875 182.09375 224.261719 184.996094 225.191406 C 170.3125 225.242188 155.664062 211.742188 146.277344 201.460938 C 132.890625 188.46875 113.324219 164.875 130.386719 147.222656 L 142.785156 135.152344 C 143.128906 134.816406 143.140625 134.253906 142.808594 133.90625 L 140.828125 131.871094 C 142.015625 131.566406 143.179688 131.21875 144.277344 130.851562 Z M 251.027344 240.207031 L 262.429688 252.125 C 261.851562 253.417969 261.027344 254.621094 259.957031 255.664062 C 256.082031 259.425781 252.152344 263.511719 248.171875 267.113281 C 235.371094 279.007812 220.867188 282.195312 206.128906 280.035156 C 203.351562 279.113281 199.554688 277.089844 196.898438 275.710938 C 179.980469 266.738281 164.164062 255.832031 148.339844 245.085938 C 146.476562 243.792969 144.566406 242.484375 142.738281 241.160156 L 115.089844 205 L 115.035156 202.097656 C 119.699219 207.402344 124.5625 212.519531 129.585938 217.480469 C 145.394531 234.148438 163.699219 250.976562 184.273438 261.472656 C 203.871094 271.472656 224.570312 274.53125 240.980469 259.242188 L 252.527344 248.03125 C 252.871094 247.695312 252.878906 247.132812 252.542969 246.789062 L 247.839844 241.949219 C 248.875 241.433594 249.953125 240.847656 251.027344 240.207031 Z M 251.027344 240.207031 " fill-opacity="1" fill-rule="nonzero"/><g clip-path="url(#c8b5915ca1)"><path fill="#0a57a2" d="M 227.273438 181.769531 C 226.511719 184.617188 223.589844 186.304688 220.742188 185.546875 C 217.890625 184.792969 216.207031 181.867188 216.960938 179.015625 C 218.109375 174.714844 218.109375 170.164062 216.953125 165.863281 C 215.84375 161.730469 213.65625 157.8125 210.394531 154.546875 C 207.136719 151.289062 203.214844 149.097656 199.082031 147.992188 C 194.78125 146.835938 190.230469 146.835938 185.929688 147.984375 C 183.078125 148.746094 180.15625 147.054688 179.394531 144.203125 C 178.632812 141.355469 180.328125 138.433594 183.175781 137.671875 C 189.28125 136.042969 195.734375 136.042969 201.839844 137.679688 C 207.75 139.269531 213.332031 142.375 217.957031 146.988281 C 222.578125 151.609375 225.683594 157.1875 227.265625 163.101562 C 228.902344 169.210938 228.902344 175.660156 227.273438 181.769531 Z M 178.230469 99.328125 C 175.296875 99.441406 173.007812 101.921875 173.121094 104.855469 C 173.234375 107.792969 175.710938 110.082031 178.648438 109.96875 C 189.316406 109.527344 199.789062 111.078125 209.449219 114.664062 L 209.457031 114.648438 C 218.652344 118.066406 227.128906 123.363281 234.359375 130.585938 C 241.582031 137.808594 246.886719 146.289062 250.304688 155.488281 C 253.875 165.117188 255.425781 175.589844 254.984375 186.285156 C 254.871094 189.222656 257.15625 191.703125 260.09375 191.816406 C 263.03125 191.929688 265.511719 189.640625 265.625 186.703125 C 266.121094 174.632812 264.355469 162.765625 260.28125 151.773438 C 256.324219 141.113281 250.214844 131.324219 241.917969 123.027344 C 233.621094 114.726562 223.832031 108.621094 213.164062 104.664062 L 213.171875 104.648438 C 202.210938 100.589844 190.332031 98.832031 178.230469 99.328125 Z M 298.800781 186.464844 C 298.65625 169.980469 295.734375 155.15625 290.605469 141.894531 C 285.070312 127.585938 276.964844 115.113281 266.988281 104.351562 C 255.988281 92.484375 242.625 82.765625 227.167969 76.097656 C 212.730469 69.859375 196.433594 66.296875 178.488281 66.144531 C 175.550781 66.121094 173.144531 68.488281 173.128906 71.425781 C 173.105469 74.363281 175.472656 76.769531 178.410156 76.785156 C 194.8125 76.929688 209.730469 80.195312 222.957031 85.910156 C 237.023438 91.976562 249.171875 100.820312 259.1875 111.621094 C 268.28125 121.429688 275.65625 132.769531 280.671875 145.738281 C 285.359375 157.855469 288.023438 171.425781 288.160156 186.542969 C 288.183594 189.480469 290.582031 191.847656 293.519531 191.824219 C 296.457031 191.800781 298.824219 189.402344 298.800781 186.464844 Z M 348.144531 177.289062 C 348.144531 221.605469 330.175781 261.738281 301.136719 290.78125 C 272.09375 319.824219 231.960938 337.789062 187.644531 337.789062 C 143.332031 337.789062 103.199219 319.824219 74.15625 290.78125 C 45.113281 261.738281 27.144531 221.605469 27.144531 177.289062 C 27.144531 132.976562 45.113281 92.84375 74.15625 63.800781 C 103.199219 34.757812 143.332031 16.792969 187.644531 16.792969 C 231.960938 16.792969 272.09375 34.757812 301.136719 63.800781 C 330.175781 92.84375 348.144531 132.976562 348.144531 177.289062 Z M 337.457031 177.289062 C 337.457031 135.921875 320.683594 98.460938 293.574219 71.351562 C 266.476562 44.246094 229.015625 27.480469 187.644531 27.480469 C 146.277344 27.480469 108.816406 44.253906 81.707031 71.359375 C 54.597656 98.460938 37.835938 135.921875 37.835938 177.289062 C 37.835938 218.660156 54.605469 256.121094 81.714844 283.230469 C 108.824219 310.335938 146.285156 327.109375 187.652344 327.109375 C 229.023438 327.109375 266.484375 310.335938 293.589844 283.230469 C 320.691406 256.121094 337.457031 218.660156 337.457031 177.289062 Z M 267.367188 247.230469 C 269.582031 249.5 270.65625 252.476562 270.617188 255.414062 C 270.574219 258.375 269.414062 261.320312 267.140625 263.527344 C 263.265625 267.292969 259.332031 271.375 255.351562 274.980469 C 234.800781 294.0625 209.890625 290.730469 186.617188 278.855469 C 164.5 267.570312 143.910156 248.425781 130.605469 234.339844 L 129.273438 232.921875 C 127.804688 231.46875 126.335938 229.992188 124.875 228.492188 C 102.613281 205.667969 86.996094 182.910156 80.253906 162.308594 C 73.144531 140.550781 75.710938 121.117188 90.390625 106.246094 L 102.644531 94.3125 C 104.921875 92.097656 107.894531 91.023438 110.839844 91.0625 C 113.800781 91.101562 116.746094 92.265625 118.953125 94.546875 L 157.648438 134.347656 C 159.863281 136.621094 160.9375 139.597656 160.898438 142.535156 C 160.859375 145.496094 159.695312 148.441406 157.414062 150.65625 C 153.363281 154.597656 149.292969 158.511719 145.265625 162.46875 C 141.703125 166.160156 140.949219 170.71875 142.417969 175.847656 C 144.191406 182.035156 148.902344 189.039062 155.777344 196.472656 C 157.320312 198.140625 159.085938 199.929688 161.058594 201.839844 L 161.308594 202.097656 C 163.113281 204.0625 164.863281 205.882812 166.546875 207.539062 C 173.800781 214.648438 180.671875 219.558594 186.769531 221.492188 C 191.84375 223.105469 196.417969 222.472656 200.210938 219.003906 C 204.296875 215.105469 208.324219 211.132812 212.378906 207.191406 C 214.65625 204.976562 217.625 203.902344 220.5625 203.941406 C 223.523438 203.980469 226.46875 205.144531 228.683594 207.417969 Z M 259.976562 255.292969 C 259.976562 255.0625 259.894531 254.828125 259.734375 254.660156 L 221.046875 214.855469 C 220.878906 214.6875 220.652344 214.589844 220.4375 214.589844 C 220.203125 214.589844 219.96875 214.671875 219.800781 214.832031 L 207.386719 226.894531 C 200.46875 233.210938 192.378906 234.4375 183.554688 231.636719 C 175.753906 229.15625 167.480469 223.363281 159.078125 215.136719 C 157.175781 213.273438 155.304688 211.332031 153.476562 209.328125 C 151.621094 207.527344 149.785156 205.652344 147.976562 203.691406 C 139.960938 195.035156 134.398438 186.601562 132.152344 178.769531 C 129.601562 169.882812 131.070312 161.828125 137.585938 155.078125 L 149.984375 143.007812 C 150.152344 142.839844 150.25 142.613281 150.25 142.398438 C 150.25 142.164062 150.167969 141.933594 150.007812 141.765625 L 111.3125 101.960938 C 111.144531 101.792969 110.917969 101.695312 110.710938 101.695312 C 110.476562 101.695312 110.246094 101.777344 110.074219 101.9375 C 106.128906 105.773438 101.746094 109.738281 97.992188 113.699219 C 86.441406 125.410156 84.554688 141.128906 90.398438 159.003906 C 96.617188 178.03125 111.367188 199.375 132.503906 221.050781 C 133.871094 222.457031 135.296875 223.882812 136.765625 225.335938 L 138.371094 227.03125 C 151.074219 240.480469 170.664062 258.730469 191.464844 269.335938 C 211.0625 279.335938 231.757812 282.394531 248.171875 267.105469 L 259.71875 255.894531 C 259.886719 255.726562 259.976562 255.503906 259.976562 255.292969 Z M 259.976562 255.292969 " fill-opacity="1" fill-rule="nonzero"/></g></svg>